# 3ds Max Wavefront OBJ Exporter v0.99 - (c)2007 guruware
# File Created: 17.03.2025 02:24:37

mtllib CoreCube_Test.mtl

#
# object Box004
#

v  -16.345121 -5.729919 0.070864
v  -0.045782 -17.318275 0.274420
v  8.132414 -5.570071 14.242126
v  -8.166926 6.018285 14.038570
v  -15.121246 -5.721927 0.779426
v  -7.760868 4.851459 13.350365
v  6.908538 -5.578062 13.533566
v  -0.451840 -16.151447 0.962627
v  -8.132410 5.570067 -14.242126
v  8.166929 -6.018289 -14.038569
v  -15.183231 -5.676581 -0.654293
v  -0.562220 -16.172197 -0.387164
v  6.924839 -6.070437 -13.267455
v  -7.696173 4.425180 -13.534583
v  0.733577 -16.223513 0.193145
v  8.069996 -5.683086 12.806236
v  15.485569 4.521569 -0.034235
v  8.149151 -6.018857 -12.647328
v  16.345125 5.729915 -0.070864
v  0.045785 17.318272 -0.274420
v  -6.924837 6.070435 13.267454
v  0.562222 16.172195 0.387163
v  15.183235 5.676579 0.654292
v  7.696175 -4.425183 13.534584
v  -15.485563 -4.521572 0.034236
v  -8.069990 5.683085 -12.806235
v  -0.733572 16.223511 -0.193144
v  -8.149145 6.018856 12.647328
v  -7.350190 5.416516 12.634640
v  -14.698746 -5.140604 0.043101
v  -12.825760 -2.450381 3.220800
v  -3.684108 2.797378 12.691074
v  -3.624244 2.817360 12.639216
v  7.283256 -5.012532 12.838499
v  9.155010 -2.487107 9.618445
v  9.140079 -2.509465 9.541163
v  7.259038 -5.097989 12.798292
v  -0.041325 -15.586614 0.247188
v  -0.112775 -15.535568 0.246088
v  -0.149300 -15.584848 0.308923
v  -6.908536 5.578061 -13.533563
v  7.760870 -4.851459 -13.350362
v  15.121246 5.721927 -0.779424
v  0.451841 16.151447 -0.962625
v  -12.900143 -2.429042 3.194466
v  -0.148827 -15.586868 0.184499
v  7.325403 -5.500662 -12.592198
v  3.624129 -2.817277 -12.639216
v  -7.283254 5.012532 -12.838496
v  -9.155068 2.487023 -9.618339
v  -9.140138 2.509381 -9.541059
v  -14.745821 -5.055288 0.041484
v  0.112778 15.535567 -0.246087
v  0.149303 15.584846 -0.308921
v  -7.325399 5.500661 12.592198
v  0.148836 15.586864 -0.184500
v  12.900148 2.429043 -3.194464
v  14.698750 5.140603 -0.043099
v  12.825865 2.450526 -3.220626
v  14.745831 5.055284 -0.041482
v  3.683994 -2.797294 -12.691075
v  7.350193 -5.416516 -12.634639
v  0.041327 15.586614 -0.247186
v  -7.259035 5.097989 -12.798293
v  -8.176553 -6.012658 -14.035380
v  -0.085824 -17.316891 0.343576
v  -8.210381 -5.451427 14.243299
v  -16.301109 5.852807 -0.135657
v  -8.178244 -5.984596 -12.621448
v  -15.490347 4.694324 -0.111693
v  -8.208691 -5.479486 12.829369
v  -0.896590 -16.158405 0.319613
v  8.210384 5.451424 -14.243299
v  16.301113 -5.852810 0.135659
v  -6.968164 -5.937992 -13.392802
v  0.217280 -16.178864 -0.450727
v  15.012814 -5.927751 -0.553394
v  7.827366 4.313121 -13.495467
v  0.363212 -16.208645 0.962176
v  -6.997040 -5.563163 13.472736
v  7.727227 4.789522 13.326629
v  15.087481 -5.855958 0.816068
v  8.176558 6.012653 14.035383
v  0.085828 17.316887 -0.343574
v  -15.012808 5.927749 0.553394
v  -0.217278 16.178864 0.450727
v  6.968169 5.937988 13.392801
v  -7.827363 -4.313124 13.495468
v  -7.727223 -4.789526 -13.326625
v  6.997046 5.563163 -13.472735
v  -0.363207 16.208645 -0.962174
v  -15.087475 5.855956 -0.816066
v  -14.670912 5.267586 -0.122090
v  -7.335226 -5.394832 -12.632144
v  -9.177554 -2.677718 -9.459405
v  -12.860224 2.712337 3.117561
v  -12.785585 2.733441 3.143173
v  -7.425132 -4.906409 12.798162
v  -3.726271 -2.343645 12.772495
v  -3.666588 -2.366132 12.721233
v  -7.401562 -4.992207 12.758297
v  -0.077482 -15.585369 0.309220
v  -0.112772 -15.535569 0.246081
v  -0.184951 -15.585578 0.246583
v  8.208693 5.479487 -12.829366
v  15.490347 -4.694324 0.111696
v  8.178247 5.984595 12.621450
v  0.896591 16.158405 -0.319613
v  -9.192159 -2.657630 -9.537284
v  -0.076948 -15.587386 0.184793
v  14.622616 -5.352219 0.123049
v  12.785530 -2.733360 -3.143274
v  7.425136 4.906409 -12.798162
v  3.726153 2.343562 -12.772491
v  3.666472 2.366048 -12.721232
v  -7.358223 -5.310343 -12.674922
v  0.112775 15.535569 -0.246079
v  0.184953 15.585578 -0.246580
v  -14.622612 5.352218 -0.123048
v  0.076955 15.587382 -0.184786
v  9.192163 2.657632 9.537289
v  7.335227 5.394831 12.632145
v  9.177458 2.677864 9.459578
v  7.358230 5.310338 12.674931
v  12.860168 -2.712256 -3.117662
v  14.670916 -5.267587 0.122091
v  0.077487 15.585370 -0.309218
v  7.401566 4.992208 -12.758296
# 128 vertices

vt 0.714721 0.000000 0.000000
vt 0.714721 0.236950 0.000000
vt 0.477771 0.236950 0.000000
vt 0.477771 0.000000 0.000000
vt 0.702874 0.011848 0.000000
vt 0.489618 0.011848 0.000000
vt 0.489618 0.225103 0.000000
vt 0.702874 0.225103 0.000000
vt 0.714721 0.238317 0.000000
vt 0.714721 0.475267 0.000000
vt 0.477771 0.475267 0.000000
vt 0.477771 0.238317 0.000000
vt 0.703956 0.250475 0.000000
vt 0.490704 0.249085 0.000000
vt 0.489313 0.462337 0.000000
vt 0.702564 0.463727 0.000000
vt 0.714721 0.476634 0.000000
vt 0.714721 0.713584 0.000000
vt 0.477771 0.713584 0.000000
vt 0.477771 0.476634 0.000000
vt 0.703999 0.488443 0.000000
vt 0.490740 0.487748 0.000000
vt 0.490041 0.701003 0.000000
vt 0.703300 0.701698 0.000000
vt 0.714721 0.714951 0.000000
vt 0.714721 0.951901 0.000000
vt 0.477771 0.951901 0.000000
vt 0.477771 0.714951 0.000000
vt 0.489313 0.727881 0.000000
vt 0.490704 0.941132 0.000000
vt 0.703956 0.939743 0.000000
vt 0.702564 0.726491 0.000000
vt 0.238885 0.714951 0.000000
vt 0.475836 0.714951 0.000000
vt 0.475836 0.951901 0.000000
vt 0.238885 0.951901 0.000000
vt 0.251156 0.727531 0.000000
vt 0.251855 0.940787 0.000000
vt 0.465114 0.940092 0.000000
vt 0.464414 0.726837 0.000000
vt 0.719325 0.794138 0.000000
vt 0.719325 0.805164 0.000000
vt 0.779123 0.805325 0.000000
vt 0.955088 0.804856 0.000000
vt 0.955088 0.794138 0.000000
vt 0.719325 0.445767 0.000000
vt 0.719325 0.456484 0.000000
vt 0.778343 0.456326 0.000000
vt 0.778823 0.457108 0.000000
vt 0.954703 0.456170 0.000000
vt 0.955088 0.504393 0.000000
vt 0.955088 0.445767 0.000000
vt 0.719325 0.073795 0.000000
vt 0.719325 0.132422 0.000000
vt 0.720284 0.132814 0.000000
vt 0.720480 0.083883 0.000000
vt 0.955088 0.084508 0.000000
vt 0.955088 0.073795 0.000000
vt 0.568067 0.965426 0.000000
vt 0.332304 0.965426 0.000000
vt 0.332304 0.976139 0.000000
vt 0.333454 0.976142 0.000000
vt 0.333462 0.975201 0.000000
vt 0.568067 0.976452 0.000000
vt 0.000000 0.714951 0.000000
vt 0.236950 0.714951 0.000000
vt 0.236950 0.951901 0.000000
vt 0.000000 0.951901 0.000000
vt 0.011848 0.726798 0.000000
vt 0.011848 0.940053 0.000000
vt 0.225103 0.940053 0.000000
vt 0.225103 0.726798 0.000000
vt 0.716656 0.243697 0.000000
vt 0.716656 0.302950 0.000000
vt 0.717614 0.303341 0.000000
vt 0.717810 0.254416 0.000000
vt 0.952419 0.255042 0.000000
vt 0.952419 0.244325 0.000000
vt 0.721994 0.109441 0.000000
vt 0.721994 0.120158 0.000000
vt 0.723145 0.120161 0.000000
vt 0.723152 0.119219 0.000000
vt 0.957757 0.120470 0.000000
vt 0.957757 0.110074 0.000000
vt 0.716656 0.941116 0.000000
vt 0.716656 0.951512 0.000000
vt 0.776538 0.951673 0.000000
vt 0.952419 0.951204 0.000000
vt 0.952419 0.940487 0.000000
vt 0.952419 0.487100 0.000000
vt 0.716656 0.487733 0.000000
vt 0.716656 0.498449 0.000000
vt 0.775598 0.498291 0.000000
vt 0.776080 0.499074 0.000000
vt 0.952034 0.498137 0.000000
vt 0.952419 0.546354 0.000000
vt 0.478652 0.963663 0.000000
vt 0.478652 0.953267 0.000000
vt 0.244047 0.954518 0.000000
vt 0.244039 0.953576 0.000000
vt 0.242889 0.953579 0.000000
vt 0.242889 0.964296 0.000000
vt 0.952419 0.424722 0.000000
vt 0.952419 0.414005 0.000000
vt 0.717810 0.414630 0.000000
vt 0.717614 0.365708 0.000000
vt 0.716656 0.366097 0.000000
vt 0.716656 0.425350 0.000000
vt 0.952419 0.661772 0.000000
vt 0.952419 0.602518 0.000000
vt 0.952034 0.650735 0.000000
vt 0.776078 0.649797 0.000000
vt 0.775596 0.650581 0.000000
vt 0.716656 0.650423 0.000000
vt 0.716656 0.661139 0.000000
vt 0.721994 0.095977 0.000000
vt 0.957757 0.096606 0.000000
vt 0.957757 0.085889 0.000000
vt 0.781874 0.085421 0.000000
vt 0.721994 0.085582 0.000000
vt 0.955088 0.386344 0.000000
vt 0.955088 0.327715 0.000000
vt 0.954703 0.375940 0.000000
vt 0.778825 0.375002 0.000000
vt 0.778345 0.375784 0.000000
vt 0.719325 0.375626 0.000000
vt 0.719325 0.386344 0.000000
vt 0.955088 0.758926 0.000000
vt 0.955088 0.748209 0.000000
vt 0.779119 0.747740 0.000000
vt 0.719325 0.747900 0.000000
vt 0.719325 0.758926 0.000000
vt 0.237097 0.976069 0.000000
vt 0.237097 0.965043 0.000000
vt 0.002492 0.966294 0.000000
vt 0.002485 0.965353 0.000000
vt 0.001335 0.965356 0.000000
vt 0.001335 0.976069 0.000000
vt 0.716656 0.840601 0.000000
vt 0.952419 0.840601 0.000000
vt 0.952419 0.829888 0.000000
vt 0.717811 0.830513 0.000000
vt 0.717615 0.781581 0.000000
vt 0.716656 0.781973 0.000000
vt 0.334973 0.977199 0.000000
vt 0.334973 0.987916 0.000000
vt 0.394777 0.988076 0.000000
vt 0.570736 0.987607 0.000000
vt 0.570736 0.977832 0.000000
vt 0.719325 0.014281 0.000000
vt 0.719325 0.024057 0.000000
vt 0.778258 0.023898 0.000000
vt 0.778736 0.024681 0.000000
vt 0.954702 0.023742 0.000000
vt 0.955088 0.072030 0.000000
vt 0.955088 0.013023 0.000000
vt 0.719325 0.190126 0.000000
vt 0.719325 0.201787 0.000000
vt 0.720477 0.201790 0.000000
vt 0.720484 0.200849 0.000000
vt 0.955088 0.202101 0.000000
vt 0.955088 0.191384 0.000000
vt 0.952419 -0.000000 0.000000
vt 0.716656 0.000633 0.000000
vt 0.716656 0.059639 0.000000
vt 0.717614 0.060030 0.000000
vt 0.717810 0.011036 0.000000
vt 0.952419 0.011661 0.000000
vt 0.952419 0.242951 0.000000
vt 0.952419 0.231290 0.000000
vt 0.717810 0.231916 0.000000
vt 0.717614 0.182923 0.000000
vt 0.716656 0.183314 0.000000
vt 0.716656 0.242319 0.000000
vt 0.955088 0.745268 0.000000
vt 0.955088 0.734551 0.000000
vt 0.720484 0.735804 0.000000
vt 0.720476 0.734863 0.000000
vt 0.719325 0.734866 0.000000
vt 0.719325 0.746526 0.000000
vt 0.719325 0.266350 0.000000
vt 0.955088 0.267609 0.000000
vt 0.955088 0.208603 0.000000
vt 0.954702 0.256890 0.000000
vt 0.778740 0.255951 0.000000
vt 0.778258 0.256733 0.000000
vt 0.719325 0.256575 0.000000
vt 0.447957 0.999367 0.000000
vt 0.447957 0.989592 0.000000
vt 0.272000 0.989123 0.000000
vt 0.212194 0.989283 0.000000
vt 0.212194 1.000000 0.000000
vt 0.475836 0.000000 0.000000
vt 0.475836 0.236950 0.000000
vt 0.238885 0.236950 0.000000
vt 0.238885 0.000000 0.000000
vt 0.463988 0.011848 0.000000
vt 0.250733 0.011848 0.000000
vt 0.250733 0.225103 0.000000
vt 0.463988 0.225103 0.000000
vt 0.475836 0.238317 0.000000
vt 0.475836 0.475267 0.000000
vt 0.238885 0.475267 0.000000
vt 0.238885 0.238317 0.000000
vt 0.465071 0.250475 0.000000
vt 0.251819 0.249085 0.000000
vt 0.250427 0.462337 0.000000
vt 0.463679 0.463727 0.000000
vt 0.475836 0.476634 0.000000
vt 0.475836 0.713584 0.000000
vt 0.238885 0.713584 0.000000
vt 0.238885 0.476634 0.000000
vt 0.465114 0.488443 0.000000
vt 0.251855 0.487748 0.000000
vt 0.251156 0.701003 0.000000
vt 0.464414 0.701698 0.000000
vt 0.236950 0.476634 0.000000
vt 0.236950 0.713584 0.000000
vt 0.000000 0.713584 0.000000
vt 0.000000 0.476634 0.000000
vt 0.011542 0.489564 0.000000
vt 0.012934 0.702816 0.000000
vt 0.226185 0.701426 0.000000
vt 0.224794 0.488174 0.000000
vt 0.000000 0.238317 0.000000
vt 0.236950 0.238317 0.000000
vt 0.236950 0.475267 0.000000
vt 0.000000 0.475267 0.000000
vt 0.012270 0.250898 0.000000
vt 0.012970 0.464153 0.000000
vt 0.226228 0.463458 0.000000
vt 0.225529 0.250203 0.000000
vt 0.719325 0.781585 0.000000
vt 0.719325 0.792611 0.000000
vt 0.779123 0.792772 0.000000
vt 0.955088 0.792303 0.000000
vt 0.955088 0.781585 0.000000
vt 0.719325 0.387710 0.000000
vt 0.719325 0.398428 0.000000
vt 0.778343 0.398269 0.000000
vt 0.778823 0.399052 0.000000
vt 0.954703 0.398114 0.000000
vt 0.955088 0.446337 0.000000
vt 0.955088 0.387710 0.000000
vt 0.716656 0.841968 0.000000
vt 0.716656 0.900595 0.000000
vt 0.717615 0.900986 0.000000
vt 0.717811 0.852056 0.000000
vt 0.952419 0.852681 0.000000
vt 0.952419 0.841968 0.000000
vt 0.976441 0.976905 0.000000
vt 0.740678 0.976905 0.000000
vt 0.740678 0.987618 0.000000
vt 0.741828 0.987621 0.000000
vt 0.741836 0.986680 0.000000
vt 0.976441 0.987931 0.000000
vt 0.000000 0.000000 0.000000
vt 0.236950 0.000000 0.000000
vt 0.236950 0.236950 0.000000
vt 0.000000 0.236950 0.000000
vt 0.011848 0.011848 0.000000
vt 0.011848 0.225103 0.000000
vt 0.225103 0.225103 0.000000
vt 0.225103 0.011848 0.000000
vt 0.716656 0.304704 0.000000
vt 0.716656 0.363958 0.000000
vt 0.717614 0.364349 0.000000
vt 0.717810 0.315424 0.000000
vt 0.952419 0.316049 0.000000
vt 0.952419 0.305333 0.000000
vt 0.716656 0.952886 0.000000
vt 0.716656 0.963602 0.000000
vt 0.717806 0.963605 0.000000
vt 0.717814 0.962663 0.000000
vt 0.952419 0.963914 0.000000
vt 0.952419 0.953518 0.000000
vt 0.719325 0.806858 0.000000
vt 0.719325 0.817254 0.000000
vt 0.779207 0.817415 0.000000
vt 0.955088 0.816946 0.000000
vt 0.955088 0.806230 0.000000
vt 0.952419 0.545779 0.000000
vt 0.716656 0.546412 0.000000
vt 0.716656 0.557128 0.000000
vt 0.775598 0.556970 0.000000
vt 0.776080 0.557753 0.000000
vt 0.952034 0.556816 0.000000
vt 0.952419 0.605033 0.000000
vt 0.239766 0.963663 0.000000
vt 0.239766 0.953267 0.000000
vt 0.005161 0.954518 0.000000
vt 0.005154 0.953576 0.000000
vt 0.004004 0.953579 0.000000
vt 0.004004 0.964296 0.000000
vt 0.952419 0.485727 0.000000
vt 0.952419 0.475010 0.000000
vt 0.717810 0.475635 0.000000
vt 0.717614 0.426713 0.000000
vt 0.716656 0.427102 0.000000
vt 0.716656 0.486355 0.000000
vt 0.952419 0.720461 0.000000
vt 0.952419 0.661208 0.000000
vt 0.952034 0.709425 0.000000
vt 0.776078 0.708487 0.000000
vt 0.775596 0.709270 0.000000
vt 0.716656 0.709112 0.000000
vt 0.716656 0.719829 0.000000
vt 0.721994 0.108068 0.000000
vt 0.957757 0.108696 0.000000
vt 0.957757 0.097980 0.000000
vt 0.781874 0.097511 0.000000
vt 0.721994 0.097672 0.000000
vt 0.955088 0.328300 0.000000
vt 0.955088 0.269671 0.000000
vt 0.954703 0.317896 0.000000
vt 0.778825 0.316959 0.000000
vt 0.778345 0.317741 0.000000
vt 0.719325 0.317582 0.000000
vt 0.719325 0.328300 0.000000
vt 0.953754 0.939121 0.000000
vt 0.953754 0.928403 0.000000
vt 0.777785 0.927934 0.000000
vt 0.717991 0.928095 0.000000
vt 0.717991 0.939121 0.000000
vt 0.805618 0.975538 0.000000
vt 0.805618 0.964512 0.000000
vt 0.571013 0.965763 0.000000
vt 0.571005 0.964822 0.000000
vt 0.569855 0.964825 0.000000
vt 0.569855 0.975538 0.000000
vt 0.716656 0.780219 0.000000
vt 0.952419 0.780219 0.000000
vt 0.952419 0.769505 0.000000
vt 0.717811 0.770130 0.000000
vt 0.717615 0.721198 0.000000
vt 0.716656 0.721590 0.000000
vt 0.000000 0.977436 0.000000
vt 0.000000 0.988152 0.000000
vt 0.059804 0.988313 0.000000
vt 0.235763 0.987844 0.000000
vt 0.235763 0.978068 0.000000
vt 0.719325 0.134190 0.000000
vt 0.719325 0.143966 0.000000
vt 0.778258 0.143808 0.000000
vt 0.778736 0.144590 0.000000
vt 0.954702 0.143651 0.000000
vt 0.955088 0.191939 0.000000
vt 0.955088 0.132932 0.000000
vt 0.719325 0.721210 0.000000
vt 0.719325 0.732871 0.000000
vt 0.720477 0.732874 0.000000
vt 0.720484 0.731933 0.000000
vt 0.955088 0.733185 0.000000
vt 0.955088 0.722468 0.000000
vt 0.952419 0.060768 0.000000
vt 0.716656 0.061400 0.000000
vt 0.716656 0.120407 0.000000
vt 0.717614 0.120797 0.000000
vt 0.717810 0.071803 0.000000
vt 0.952419 0.072429 0.000000
vt 0.952419 0.182185 0.000000
vt 0.952419 0.170524 0.000000
vt 0.717810 0.171150 0.000000
vt 0.717614 0.122157 0.000000
vt 0.716656 0.122547 0.000000
vt 0.716656 0.181553 0.000000
vt 0.952419 0.925466 0.000000
vt 0.952419 0.914749 0.000000
vt 0.717815 0.916001 0.000000
vt 0.717807 0.915060 0.000000
vt 0.716656 0.915063 0.000000
vt 0.716656 0.926724 0.000000
vt 0.716656 0.912124 0.000000
vt 0.952419 0.913383 0.000000
vt 0.952419 0.854377 0.000000
vt 0.952033 0.902664 0.000000
vt 0.776071 0.901725 0.000000
vt 0.775589 0.902507 0.000000
vt 0.716656 0.902349 0.000000
vt 0.808287 0.998947 0.000000
vt 0.808287 0.989171 0.000000
vt 0.632330 0.988702 0.000000
vt 0.572524 0.988863 0.000000
vt 0.572524 0.999579 0.000000
# 384 texture coords

o Box004
g Box004
usemtl wire_118037029
f 1/1 2/2 3/3 4/4 1/1 5/5 6/6 7/7 8/8 5/5 
f 1/9 9/10 10/11 2/12 1/9 11/13 12/14 13/15 14/16 11/13 
f 2/17 10/18 19/19 3/20 2/17 15/21 16/22 17/23 18/24 15/21 
f 3/25 19/26 20/27 4/28 21/29 22/30 23/31 24/32 21/29 4/28 
f 1/33 4/34 20/35 9/36 1/33 25/37 26/38 27/39 28/40 25/37 
f 9/65 20/66 19/67 10/68 9/65 41/69 42/70 43/71 44/72 41/69 
f 5/41 30/42 31/43 29/44 6/45 
f 13/85 47/86 48/87 49/88 14/89 
f 21/116 24/117 34/118 33/119 55/120 
f 42/128 62/129 59/130 58/131 43/132 
f 16/145 37/146 36/147 60/148 17/149 
f 25/188 52/189 51/190 64/191 26/192 
f 6/46 29/47 32/48 33/49 34/50 35/51 7/52 
f 11/90 14/91 49/92 50/93 51/94 52/95 45/96 
f 23/109 57/110 60/111 36/112 35/113 34/114 24/115 
f 41/121 50/122 49/123 48/124 61/125 62/126 42/127 
f 17/150 60/151 57/152 59/153 62/154 61/155 18/156 
f 25/181 28/182 32/183 29/184 31/185 45/186 52/187 
f 7/53 35/54 36/55 37/56 38/57 8/58 
f 5/59 8/60 38/61 39/62 40/63 30/64 
f 11/73 45/74 31/75 30/76 40/77 12/78 
f 12/79 40/80 39/81 46/82 47/83 13/84 
f 21/97 55/98 56/99 53/100 54/101 22/102 
f 22/103 54/104 58/105 59/106 57/107 23/108 
f 43/133 58/134 54/135 53/136 63/137 44/138 
f 41/139 44/140 63/141 64/142 51/143 50/144 
f 15/157 46/158 39/159 38/160 37/161 16/162 
f 15/163 18/164 61/165 48/166 47/167 46/168 
f 27/169 56/170 55/171 33/172 32/173 28/174 
f 26/175 64/176 63/177 53/178 56/179 27/180 
f 65/193 66/194 67/195 68/196 65/193 69/197 70/198 71/199 72/200 69/197 
f 65/201 73/202 74/203 66/204 65/201 75/205 76/206 77/207 78/208 75/205 
f 66/209 74/210 83/211 67/212 66/209 79/213 80/214 81/215 82/216 79/213 
f 67/217 83/218 84/219 68/220 85/221 86/222 87/223 88/224 85/221 68/220 
f 65/225 68/226 84/227 73/228 65/225 89/229 90/230 91/231 92/232 89/229 
f 73/257 84/258 83/259 74/260 73/257 105/261 106/262 107/263 108/264 105/261 
f 69/233 94/234 95/235 93/236 70/237 
f 77/277 111/278 112/279 113/280 78/281 
f 85/308 88/309 98/310 97/311 119/312 
f 106/320 126/321 123/322 122/323 107/324 
f 80/337 101/338 100/339 124/340 81/341 
f 89/380 116/381 115/382 128/383 90/384 
f 70/238 93/239 96/240 97/241 98/242 99/243 71/244 
f 75/282 78/283 113/284 114/285 115/286 116/287 109/288 
f 87/301 121/302 124/303 100/304 99/305 98/306 88/307 
f 105/313 114/314 113/315 112/316 125/317 126/318 106/319 
f 81/342 124/343 121/344 123/345 126/346 125/347 82/348 
f 89/373 92/374 96/375 93/376 95/377 109/378 116/379 
f 71/245 99/246 100/247 101/248 102/249 72/250 
f 69/251 72/252 102/253 103/254 104/255 94/256 
f 75/265 109/266 95/267 94/268 104/269 76/270 
f 76/271 104/272 103/273 110/274 111/275 77/276 
f 85/289 119/290 120/291 117/292 118/293 86/294 
f 86/295 118/296 122/297 123/298 121/299 87/300 
f 107/325 122/326 118/327 117/328 127/329 108/330 
f 105/331 108/332 127/333 128/334 115/335 114/336 
f 79/349 110/350 103/351 102/352 101/353 80/354 
f 79/355 82/356 125/357 112/358 111/359 110/360 
f 91/361 120/362 119/363 97/364 96/365 92/366 
f 90/367 128/368 127/369 117/370 120/371 91/372 
# 60 polygons

