# 3ds Max Wavefront OBJ Exporter v0.99 - (c)2007 guruware
# File Created: 17.03.2025 03:48:22

mtllib Turret2.mtl

#
# object Box001
#

v  -18.718309 0.000002 -40.000000
v  0.000000 0.000002 -40.000000
v  0.000000 10.000002 -40.000000
v  -18.718309 10.000002 -40.000000
v  -39.093708 10.000001 -20.906292
v  -39.093708 0.000001 -20.906292
v  -20.906292 0.000002 -39.093708
v  -20.906292 10.000002 -39.093708
v  -40.000000 10.000001 -18.718309
v  -40.000000 0.000001 -18.718309
v  -39.773426 0.000001 -19.906151
v  -39.773426 10.000001 -19.906151
v  -19.906151 10.000002 -39.773426
v  -19.906151 0.000002 -39.773426
v  -40.000000 10.000000 0.000000
v  0.000000 9.999998 40.000000
v  -18.718309 -0.000002 40.000000
v  -18.718309 9.999998 40.000000
v  -39.093708 9.999999 20.906292
v  -20.906292 9.999998 39.093708
v  -20.906292 -0.000002 39.093708
v  -39.093708 -0.000001 20.906292
v  -40.000000 9.999999 18.718309
v  -39.773426 9.999999 19.906151
v  -39.773426 -0.000001 19.906151
v  -40.000000 -0.000001 18.718309
v  -19.906151 -0.000002 39.773426
v  -19.906151 9.999998 39.773426
v  -40.000000 0.000000 -0.000000
v  -15.243729 10.018013 -32.575012
v  0.000000 10.018013 -32.575012
v  0.000000 15.272433 -32.575012
v  -15.243729 15.272433 -32.575012
v  -31.836950 15.272433 -17.025568
v  -31.836950 10.018013 -17.025568
v  -17.025568 10.018013 -31.836950
v  -17.025568 15.272433 -31.836950
v  -32.575012 15.272433 -15.243728
v  -32.575012 10.018013 -15.243729
v  -32.390495 10.018013 -16.211077
v  -32.390495 15.272433 -16.211077
v  -16.211077 15.272433 -32.390495
v  -16.211077 10.018013 -32.390495
v  -32.575012 15.272432 0.000001
v  0.000000 10.018011 32.575012
v  0.000000 15.272432 0.000001
v  -15.243729 10.018011 32.575012
v  -15.243729 15.272431 32.575012
v  -31.836950 15.272431 17.025568
v  -17.025568 15.272431 31.836950
v  -17.025568 10.018011 31.836950
v  -31.836950 10.018011 17.025568
v  -32.575012 15.272431 15.243730
v  -32.390495 15.272431 16.211077
v  -32.390495 10.018011 16.211077
v  -32.575012 10.018011 15.243729
v  -16.211077 10.018011 32.390495
v  -16.211077 15.272431 32.390495
v  -32.575012 10.018012 0.000000
v  -12.793466 -0.047720 49.407272
v  -18.718309 9.999998 40.000000
v  -18.718309 -0.000002 40.000000
v  -18.718309 0.000002 -40.000000
v  -12.793466 -0.047716 -49.407272
v  -18.718309 10.000002 -40.000000
v  -40.000000 -0.000001 18.718311
v  -40.000000 0.000001 -18.718307
v  -49.407272 -0.047717 -12.793464
v  -49.407272 -0.047719 12.793468
v  -40.000000 10.000001 -18.718307
v  -40.000000 9.999999 18.718311
v  -1.530293 15.245575 -8.678717
v  -4.406301 15.245575 -7.631936
v  -6.750844 15.245575 -5.664630
v  -8.281137 15.245575 -3.014087
v  -8.812601 15.245575 -0.000001
v  -8.281137 15.245575 3.014086
v  -6.750845 15.245575 5.664629
v  -4.406303 15.245575 7.631935
v  -1.530296 15.245575 8.678719
v  -1.530293 36.345963 -8.678716
v  -4.406301 36.345963 -7.631935
v  -6.750844 36.345963 -5.664629
v  -8.281137 36.345963 -3.014086
v  -8.812601 36.345963 0.000000
v  -8.281137 36.345963 3.014087
v  -6.750845 36.345963 5.664630
v  -4.406303 36.345963 7.631936
v  -1.530296 36.345963 8.678720
v  -1.110242 36.384933 -6.296492
v  -3.196814 36.384933 -5.537042
v  -4.897802 36.384933 -4.109743
v  -6.008044 36.384933 -2.186748
v  -6.393627 36.384933 0.000001
v  -6.008044 36.384933 2.186750
v  -4.897803 36.384933 4.109745
v  -3.196816 36.384933 5.537044
v  -1.110244 36.384933 6.296495
v  -1.110242 60.028442 -6.296491
v  -3.196814 60.028442 -5.537040
v  -4.897802 60.028442 -4.109742
v  -6.008044 60.028442 -2.186747
v  -6.393627 60.028442 0.000002
v  -6.008044 60.028442 2.186751
v  -4.897803 60.028442 4.109746
v  -3.196816 60.028442 5.537045
v  -1.110244 60.028442 6.296496
v  -23.616533 78.076172 17.089020
v  -23.616533 78.076172 28.653221
v  -23.616533 76.439438 28.653221
v  -23.616533 76.439438 17.089020
v  -22.478455 77.875496 17.089020
v  -22.478455 77.875496 28.653221
v  -23.038250 76.337471 28.653221
v  -23.038250 76.337471 17.089020
v  -21.477644 77.297676 17.089020
v  -21.477644 77.297676 28.653221
v  -22.529716 76.043869 28.653221
v  -22.529716 76.043869 17.089020
v  -20.734816 76.412407 17.089020
v  -20.734816 76.412407 28.653221
v  -22.152267 75.594040 28.653221
v  -22.152267 75.594040 17.089020
v  -20.339565 75.326469 17.089020
v  -20.339565 75.326469 28.653221
v  -21.951433 75.042252 28.653221
v  -21.951433 75.042252 17.089020
v  -20.339565 74.170830 17.089020
v  -20.339565 74.170830 28.653221
v  -21.951433 74.455048 28.653221
v  -21.951433 74.455048 17.089020
v  -20.734816 73.084892 17.089020
v  -20.734816 73.084885 28.653221
v  -22.152269 73.903252 28.653221
v  -22.152269 73.903259 17.089020
v  -21.477644 72.199623 17.089020
v  -21.477644 72.199623 28.653221
v  -22.529716 73.453430 28.653221
v  -22.529716 73.453430 17.089020
v  -22.478455 71.621803 17.089020
v  -22.478455 71.621803 28.653221
v  -23.038250 73.159828 28.653221
v  -23.038250 73.159828 17.089020
v  -23.616533 71.421127 17.089020
v  -23.616533 71.421127 28.653221
v  -23.616533 73.057861 28.653221
v  -23.616533 73.057861 17.089020
v  -24.754614 71.621803 17.089020
v  -24.754614 71.621803 28.653221
v  -24.194817 73.159828 28.653221
v  -24.194817 73.159828 17.089020
v  -25.755424 72.199623 17.089020
v  -25.755424 72.199623 28.653221
v  -24.703350 73.453430 28.653221
v  -24.703350 73.453430 17.089020
v  -26.498251 73.084892 17.089020
v  -26.498251 73.084892 28.653221
v  -25.080799 73.903259 28.653221
v  -25.080799 73.903259 17.089020
v  -26.893501 74.170830 17.089020
v  -26.893501 74.170830 28.653221
v  -25.281633 74.455048 28.653221
v  -25.281633 74.455048 17.089020
v  -26.893501 75.326469 17.089020
v  -26.893501 75.326469 28.653221
v  -25.281633 75.042252 28.653221
v  -25.281633 75.042252 17.089020
v  -26.498251 76.412407 17.089020
v  -26.498251 76.412407 28.653221
v  -25.080797 75.594040 28.653221
v  -25.080797 75.594040 17.089020
v  -25.755423 77.297676 17.089020
v  -25.755423 77.297676 28.653221
v  -24.703350 76.043869 28.653221
v  -24.703350 76.043869 17.089020
v  -24.754612 77.875496 17.089020
v  -24.754612 77.875496 28.653221
v  -24.194817 76.337471 28.653221
v  -24.194817 76.337471 17.089020
v  -29.570116 70.390228 17.086575
v  -27.782936 68.603043 17.086575
v  -27.782936 68.603043 -19.677406
v  -29.570114 70.390221 -19.677406
v  -17.639271 70.390221 -19.677406
v  -19.426451 68.603043 -19.677406
v  -19.426453 68.603043 17.086576
v  -17.639273 70.390221 17.086576
v  -27.782936 80.533890 17.086573
v  -29.570116 78.746712 17.086573
v  -29.570114 78.746712 -19.677406
v  -27.782936 80.533890 -19.677406
v  -17.639273 78.746704 17.086575
v  -19.426453 80.533890 17.086575
v  -19.426451 80.533890 -19.677406
v  -17.639271 78.746704 -19.677406
v  -32.250061 61.319244 12.595338
v  -24.107349 52.867683 12.595338
v  -24.107334 52.867683 -50.527710
v  -32.250046 61.319244 -50.527714
v  -24.107349 107.132317 12.595339
v  -32.250061 98.680756 12.595338
v  -32.250046 98.680756 -50.527714
v  -24.107334 107.132309 -50.527714
v  -29.599461 62.417156 12.595338
v  -22.078667 54.896362 12.595339
v  -22.078651 54.896362 -50.527710
v  -29.599445 62.417156 -50.527714
v  -22.078667 105.103638 12.595339
v  -29.599461 97.582840 12.595338
v  -29.599445 97.582840 -50.527714
v  -22.078651 105.103638 -50.527714
v  -17.500000 67.742821 12.595339
v  -12.257178 62.500000 12.595340
v  -12.257173 62.500004 -50.527710
v  -17.499994 67.742821 -50.527710
v  -12.257178 97.500000 12.595339
v  -17.500000 92.257179 12.595339
v  -17.499994 92.257172 -50.527714
v  -12.257173 97.500000 -50.527710
v  -12.442620 71.285065 35.391102
v  -8.714938 67.557381 35.391102
v  -8.714938 67.557381 12.595339
v  -12.442620 71.285065 12.595340
v  -12.442620 88.714935 12.595341
v  -8.714938 92.442619 12.595342
v  -8.714938 92.442619 35.391102
v  -12.442620 88.714935 35.391102
v  -3.386038 103.740784 -33.479786
v  -2.211133 104.915695 -34.425919
v  -2.211133 109.337967 -37.987080
v  -3.386038 109.512863 -38.127922
v  -2.386038 110.512863 -38.933201
v  -1.784637 103.740784 -27.874960
v  -3.386038 103.740784 -9.777841
v  -3.386038 109.512863 -14.425977
v  -2.386038 110.512863 -15.231256
v  -1.784637 103.740784 -15.382665
v  -1.784637 97.511185 -27.874960
v  -2.211133 104.915695 -10.723973
v  -2.211133 109.337967 -14.285136
v  -1.784637 97.511185 -15.382666
v  0.000000 74.226349 35.361092
v  0.000000 89.756050 77.053017
v  0.000000 89.756050 72.087242
v  -3.353989 83.337074 35.361092
v  -2.189161 84.314484 35.361092
v  -0.760287 84.834549 35.361092
v  -1.110225 86.819138 35.361092
v  -3.196765 86.059700 35.361092
v  -4.897727 84.632423 35.361092
v  -6.007952 82.709457 35.361092
v  -6.393529 80.522743 35.361092
v  -6.007951 78.336021 35.361092
v  -4.897725 76.413055 35.361092
v  -3.196762 74.985786 35.361092
v  -1.110222 74.226349 35.361092
v  -0.760286 76.210938 35.361092
v  -2.189158 76.731003 35.361092
v  -3.353987 77.708412 35.361092
v  -4.114275 79.025269 35.361092
v  -4.378321 80.522743 35.361092
v  -4.114276 82.020218 35.361092
v  -9.375747 80.522743 77.053009
v  -4.114275 79.025261 77.053009
v  -8.810319 77.316040 77.053009
v  -6.393529 80.522743 72.087234
v  -6.007950 78.336021 72.087234
v  -4.897725 76.413055 72.087234
v  -3.196761 74.985779 72.087234
v  -1.110222 74.226349 72.087234
v  -1.110224 86.819138 72.087234
v  -3.196764 86.059700 72.087234
v  -4.897727 84.632423 72.087234
v  -6.007952 82.709457 72.087234
v  -9.375747 80.522743 72.087234
v  -8.810319 77.316040 72.087234
v  -7.182235 74.496124 72.087234
v  -4.687869 72.403107 72.087234
v  -1.628078 71.289436 72.087234
v  0.000000 71.289436 72.087234
v  -1.628081 89.756050 72.087242
v  -4.687873 88.642380 72.087242
v  -7.182239 86.549355 72.087234
v  -8.810321 83.729439 72.087234
v  -7.182235 74.496124 77.053009
v  -4.687869 72.403107 77.053009
v  -1.628078 71.289429 77.053009
v  -1.628081 89.756050 77.053017
v  -4.687873 88.642380 77.053017
v  -7.182239 86.549355 77.053009
v  -8.810321 83.729439 77.053009
v  -4.378321 80.522743 77.053009
v  -4.114276 82.020218 77.053009
v  -3.353989 83.337074 77.053009
v  -2.189161 84.314476 77.053009
v  -3.353987 77.708405 77.053009
v  -0.760287 84.834549 77.053009
v  -2.189158 76.731003 77.053009
v  -0.760286 76.210938 77.053009
v  -2.020020 60.000000 -11.456087
v  -5.816411 60.000000 -10.074314
v  -8.911259 60.000000 -7.477428
v  -10.931277 60.000000 -3.978655
v  -11.632822 60.000000 0.000003
v  -10.931277 60.000000 3.978662
v  -8.911261 60.000000 7.477437
v  -5.816414 60.000000 10.074323
v  -2.020023 60.000000 11.456098
v  -2.020020 62.808849 -11.456087
v  -5.816411 62.808849 -10.074314
v  -8.911259 62.808849 -7.477428
v  -10.931277 62.808849 -3.978655
v  -11.632822 62.808849 0.000004
v  -10.931277 62.808849 3.978662
v  -8.911261 62.808849 7.477437
v  -5.816414 62.808849 10.074323
v  -2.020023 62.808849 11.456098
v  0.000000 9.999998 40.000000
v  0.000000 0.000002 -40.000000
v  0.000000 -0.047716 -49.407272
v  0.000000 10.000002 -40.000000
v  0.000000 15.245575 -8.678718
v  0.000000 15.245575 8.678720
v  0.000000 60.028442 -6.296491
v  0.000000 97.500000 12.595340
v  0.000000 62.500000 12.595341
v  0.000000 62.500004 -50.527710
v  0.000000 103.740784 -33.479786
v  0.000000 104.915695 -34.425915
v  0.000000 103.740784 -9.777841
v  0.000000 110.512863 -15.231256
v  0.000000 97.511185 -15.382666
v  0.000000 60.000000 -11.456088
v  0.000000 60.000000 11.456099
v  18.718309 0.000002 -40.000000
v  18.718309 10.000002 -40.000000
v  0.000000 10.000002 -40.000000
v  39.093708 10.000001 -20.906292
v  20.906292 10.000002 -39.093708
v  20.906292 0.000002 -39.093708
v  39.093708 0.000001 -20.906292
v  40.000000 10.000001 -18.718309
v  39.773426 10.000001 -19.906151
v  39.773426 0.000001 -19.906151
v  40.000000 0.000001 -18.718309
v  19.906151 0.000002 -39.773426
v  19.906151 10.000002 -39.773426
v  0.000000 0.000000 -0.000000
v  40.000000 0.000000 -0.000000
v  40.000000 10.000000 0.000000
v  0.000000 10.000000 0.000000
v  18.718309 -0.000002 40.000000
v  0.000000 -0.000002 40.000000
v  18.718309 9.999998 40.000000
v  39.093708 9.999999 20.906292
v  39.093708 -0.000001 20.906292
v  20.906292 -0.000002 39.093708
v  20.906292 9.999998 39.093708
v  40.000000 9.999999 18.718309
v  40.000000 -0.000001 18.718309
v  39.773426 -0.000001 19.906151
v  39.773426 9.999999 19.906151
v  19.906151 9.999998 39.773426
v  19.906151 -0.000002 39.773426
v  15.243729 10.018013 -32.575012
v  15.243729 15.272433 -32.575012
v  31.836950 15.272433 -17.025568
v  17.025568 15.272433 -31.836950
v  17.025568 10.018013 -31.836950
v  31.836950 10.018013 -17.025568
v  32.575012 15.272433 -15.243728
v  32.390495 15.272433 -16.211077
v  32.390495 10.018013 -16.211077
v  32.575012 10.018013 -15.243729
v  16.211077 10.018013 -32.390495
v  16.211077 15.272433 -32.390495
v  0.000000 10.018012 0.000000
v  32.575012 10.018012 0.000000
v  32.575012 15.272432 0.000001
v  15.243729 10.018011 32.575012
v  0.000000 15.272431 32.575012
v  15.243729 15.272431 32.575012
v  31.836950 15.272431 17.025568
v  31.836950 10.018011 17.025568
v  17.025568 10.018011 31.836950
v  17.025568 15.272431 31.836950
v  32.575012 15.272431 15.243730
v  32.575012 10.018011 15.243729
v  32.390495 10.018011 16.211077
v  32.390495 15.272431 16.211077
v  16.211077 15.272431 32.390495
v  16.211077 10.018011 32.390495
v  18.718309 -0.000002 40.000000
v  0.000000 -0.000002 40.000000
v  0.000000 -0.047720 49.407272
v  12.793466 -0.047720 49.407272
v  18.718309 9.999998 40.000000
v  18.718309 0.000002 -40.000000
v  12.793466 -0.047716 -49.407272
v  18.718309 10.000002 -40.000000
v  40.000000 -0.000001 18.718311
v  49.407272 -0.047719 12.793468
v  49.407272 -0.047717 -12.793464
v  40.000000 0.000001 -18.718307
v  40.000000 10.000001 -18.718307
v  40.000000 9.999999 18.718311
v  1.530293 15.245575 -8.678717
v  4.406301 15.245575 -7.631936
v  4.406301 36.345963 -7.631935
v  1.530293 36.345963 -8.678716
v  6.750844 15.245575 -5.664630
v  6.750844 36.345963 -5.664629
v  8.281137 15.245575 -3.014087
v  8.281137 36.345963 -3.014086
v  8.812601 15.245575 -0.000001
v  8.812601 36.345963 0.000000
v  8.281137 15.245575 3.014086
v  8.281137 36.345963 3.014087
v  6.750845 15.245575 5.664629
v  6.750845 36.345963 5.664630
v  4.406303 15.245575 7.631935
v  4.406303 36.345963 7.631936
v  1.530296 15.245575 8.678719
v  1.530296 36.345963 8.678720
v  0.000000 36.345963 8.678720
v  1.110242 36.384933 -6.296492
v  3.196814 36.384933 -5.537042
v  3.196814 60.028442 -5.537040
v  1.110242 60.028442 -6.296491
v  4.897802 36.384933 -4.109743
v  4.897802 60.028442 -4.109742
v  6.008044 36.384933 -2.186748
v  6.008044 60.028442 -2.186747
v  6.393627 36.384933 0.000001
v  6.393627 60.028442 0.000002
v  6.008044 36.384933 2.186750
v  6.008044 60.028442 2.186751
v  4.897803 36.384933 4.109745
v  4.897803 60.028442 4.109746
v  3.196816 36.384933 5.537044
v  3.196816 60.028442 5.537045
v  1.110244 36.384933 6.296495
v  1.110244 60.028442 6.296496
v  0.000000 36.384933 6.296495
v  0.000000 60.028442 6.296497
v  23.616533 78.076172 17.089020
v  23.616533 78.076172 28.653221
v  22.478455 77.875496 28.653221
v  22.478455 77.875496 17.089020
v  23.616533 76.439438 28.653221
v  23.038250 76.337471 28.653221
v  23.616533 76.439438 17.089020
v  23.038250 76.337471 17.089020
v  21.477644 77.297676 28.653221
v  21.477644 77.297676 17.089020
v  22.529716 76.043869 28.653221
v  22.529716 76.043869 17.089020
v  20.734816 76.412407 28.653221
v  20.734816 76.412407 17.089020
v  22.152267 75.594040 28.653221
v  22.152267 75.594040 17.089020
v  20.339565 75.326469 28.653221
v  20.339565 75.326469 17.089020
v  21.951433 75.042252 28.653221
v  21.951433 75.042252 17.089020
v  20.339565 74.170830 28.653221
v  20.339565 74.170830 17.089020
v  21.951433 74.455048 28.653221
v  21.951433 74.455048 17.089020
v  20.734816 73.084885 28.653221
v  20.734816 73.084892 17.089020
v  22.152269 73.903252 28.653221
v  22.152269 73.903259 17.089020
v  21.477644 72.199623 28.653221
v  21.477644 72.199623 17.089020
v  22.529716 73.453430 28.653221
v  22.529716 73.453430 17.089020
v  22.478455 71.621803 28.653221
v  22.478455 71.621803 17.089020
v  23.038250 73.159828 28.653221
v  23.038250 73.159828 17.089020
v  23.616533 71.421127 28.653221
v  23.616533 71.421127 17.089020
v  23.616533 73.057861 28.653221
v  23.616533 73.057861 17.089020
v  24.754614 71.621803 28.653221
v  24.754614 71.621803 17.089020
v  24.194817 73.159828 28.653221
v  24.194817 73.159828 17.089020
v  25.755424 72.199623 28.653221
v  25.755424 72.199623 17.089020
v  24.703350 73.453430 28.653221
v  24.703350 73.453430 17.089020
v  26.498251 73.084892 28.653221
v  26.498251 73.084892 17.089020
v  25.080799 73.903259 28.653221
v  25.080799 73.903259 17.089020
v  26.893501 74.170830 28.653221
v  26.893501 74.170830 17.089020
v  25.281633 74.455048 28.653221
v  25.281633 74.455048 17.089020
v  26.893501 75.326469 28.653221
v  26.893501 75.326469 17.089020
v  25.281633 75.042252 28.653221
v  25.281633 75.042252 17.089020
v  26.498251 76.412407 28.653221
v  26.498251 76.412407 17.089020
v  25.080797 75.594040 28.653221
v  25.080797 75.594040 17.089020
v  25.755423 77.297676 28.653221
v  25.755423 77.297676 17.089020
v  24.703350 76.043869 28.653221
v  24.703350 76.043869 17.089020
v  24.754612 77.875496 28.653221
v  24.754612 77.875496 17.089020
v  24.194817 76.337471 28.653221
v  24.194817 76.337471 17.089020
v  19.426453 68.603043 17.086576
v  17.639273 70.390221 17.086576
v  17.639273 78.746704 17.086575
v  19.426453 80.533890 17.086575
v  27.782936 80.533890 17.086573
v  29.570116 78.746712 17.086573
v  29.570116 70.390228 17.086575
v  27.782936 68.603043 17.086575
v  17.639271 70.390221 -19.677406
v  19.426451 68.603043 -19.677406
v  27.782936 68.603043 -19.677406
v  29.570114 70.390221 -19.677406
v  29.570114 78.746712 -19.677406
v  27.782936 80.533890 -19.677406
v  19.426451 80.533890 -19.677406
v  17.639271 78.746704 -19.677406
v  32.250061 98.680756 12.595338
v  32.250046 98.680756 -50.527714
v  32.250046 61.319244 -50.527714
v  32.250061 61.319244 12.595338
v  24.107334 52.867683 -50.527710
v  24.107349 52.867683 12.595338
v  24.107349 107.132317 12.595339
v  24.107334 107.132309 -50.527714
v  29.599445 62.417156 -50.527714
v  29.599445 97.582840 -50.527714
v  29.599461 97.582840 12.595338
v  29.599461 62.417156 12.595338
v  22.078667 54.896362 12.595339
v  22.078651 54.896362 -50.527710
v  22.078667 105.103638 12.595339
v  22.078651 105.103638 -50.527714
v  17.500000 67.742821 12.595339
v  17.500000 92.257179 12.595339
v  17.499994 92.257172 -50.527714
v  17.499994 67.742821 -50.527710
v  12.257178 97.500000 12.595339
v  0.000000 97.500000 -50.527710
v  12.257173 97.500000 -50.527710
v  12.257173 62.500004 -50.527710
v  12.257178 62.500000 12.595340
v  8.714938 67.557381 12.595339
v  12.442620 71.285065 12.595340
v  12.442620 88.714935 12.595341
v  8.714938 92.442619 12.595342
v  0.000000 92.442619 12.595342
v  0.000000 67.557381 12.595339
v  12.442620 71.285065 35.391102
v  8.714938 67.557381 35.391102
v  0.000000 67.557381 35.391102
v  0.000000 92.442619 35.391102
v  8.714938 92.442619 35.391102
v  12.442620 88.714935 35.391102
v  3.386038 103.740784 -33.479786
v  3.386038 109.512863 -38.127922
v  2.386038 110.512863 -38.933201
v  0.000000 110.512863 -38.933201
v  0.000000 109.337967 -37.987080
v  2.211133 109.337967 -37.987080
v  2.211133 104.915695 -34.425919
v  3.386038 103.740784 -9.777841
v  0.000000 104.915695 -10.723973
v  2.211133 104.915695 -10.723973
v  0.000000 103.740784 -27.874960
v  1.784637 103.740784 -27.874960
v  3.386038 109.512863 -14.425977
v  2.386038 110.512863 -15.231256
v  1.784637 103.740784 -15.382665
v  0.000000 103.740784 -15.382665
v  1.784637 97.511185 -27.874960
v  1.784637 97.511185 -15.382666
v  2.211133 109.337967 -14.285136
v  3.353989 83.337074 35.361092
v  4.114276 82.020218 35.361092
v  4.378321 80.522743 35.361092
v  4.114275 79.025269 35.361092
v  3.353987 77.708412 35.361092
v  2.189158 76.731003 35.361092
v  0.760286 76.210938 35.361092
v  0.000000 76.210938 35.361092
v  1.110222 74.226349 35.361092
v  3.196762 74.985786 35.361092
v  4.897725 76.413055 35.361092
v  6.007951 78.336021 35.361092
v  6.393529 80.522743 35.361092
v  6.007952 82.709457 35.361092
v  4.897727 84.632423 35.361092
v  3.196765 86.059700 35.361092
v  1.110225 86.819138 35.361092
v  0.000000 86.819138 35.361092
v  0.000000 84.834549 35.361092
v  0.760287 84.834549 35.361092
v  2.189161 84.314484 35.361092
v  9.375747 80.522743 77.053009
v  8.810319 77.316040 77.053009
v  4.114275 79.025261 77.053009
v  6.007950 78.336021 72.087234
v  6.393529 80.522743 72.087234
v  4.897725 76.413055 72.087234
v  3.196761 74.985779 72.087234
v  1.110222 74.226349 72.087234
v  0.000000 74.226349 72.087234
v  3.196764 86.059700 72.087234
v  1.110224 86.819138 72.087234
v  4.897727 84.632423 72.087234
v  6.007952 82.709457 72.087234
v  8.810319 77.316040 72.087234
v  9.375747 80.522743 72.087234
v  7.182235 74.496124 72.087234
v  4.687869 72.403107 72.087234
v  1.628078 71.289436 72.087234
v  4.687873 88.642380 72.087242
v  1.628081 89.756050 72.087242
v  7.182239 86.549355 72.087234
v  8.810321 83.729439 72.087234
v  7.182235 74.496124 77.053009
v  4.687869 72.403107 77.053009
v  1.628078 71.289429 77.053009
v  0.000000 71.289436 77.053009
v  4.687873 88.642380 77.053017
v  1.628081 89.756050 77.053017
v  7.182239 86.549355 77.053009
v  8.810321 83.729439 77.053009
v  4.114276 82.020218 77.053009
v  4.378321 80.522743 77.053009
v  3.353989 83.337074 77.053009
v  2.189161 84.314476 77.053009
v  3.353987 77.708405 77.053009
v  0.760287 84.834549 77.053009
v  2.189158 76.731003 77.053009
v  0.000000 84.834549 77.053009
v  0.760286 76.210938 77.053009
v  0.000000 86.401199 77.053009
v  0.000000 74.644272 77.053009
v  0.000000 76.210938 77.053009
v  0.000000 86.819138 72.087234
v  2.020020 60.000000 -11.456087
v  5.816411 60.000000 -10.074314
v  5.816411 62.808849 -10.074314
v  2.020020 62.808849 -11.456087
v  8.911259 60.000000 -7.477428
v  8.911259 62.808849 -7.477428
v  10.931277 60.000000 -3.978655
v  10.931277 62.808849 -3.978655
v  11.632822 60.000000 0.000003
v  11.632822 62.808849 0.000004
v  10.931277 60.000000 3.978662
v  10.931277 62.808849 3.978662
v  8.911261 60.000000 7.477437
v  8.911261 62.808849 7.477437
v  5.816414 60.000000 10.074323
v  5.816414 62.808849 10.074323
v  2.020023 60.000000 11.456098
v  2.020023 62.808849 11.456098
v  0.000000 62.808849 11.456099
v  0.000000 9.999998 40.000000
v  0.000000 36.345963 -8.678717
v  0.000000 36.384933 -6.296492
v  0.000000 109.337967 -14.285136
v  0.000000 97.511185 -27.874960
v  0.000000 62.808849 -11.456088
v  0.000000 0.000002 -40.000000
v  0.000000 10.000002 -40.000000
v  0.000000 9.999998 40.000000
v  0.000000 0.000002 -40.000000
v  0.000000 -0.047716 -49.407272
v  0.000000 0.000000 -0.000000
v  0.000000 10.000000 0.000000
v  0.000000 -0.000002 40.000000
v  0.000000 -0.000002 40.000000
v  0.000000 -0.047720 49.407272
# 688 vertices

vt 0.206249 0.438530 0.000000
vt 0.219501 0.438530 0.000000
vt 0.219501 0.495169 0.000000
vt 0.206249 0.495169 0.000000
vt 0.307635 0.461027 0.000000
vt 0.307635 0.398826 0.000000
vt 0.321776 0.398826 0.000000
vt 0.321776 0.461027 0.000000
vt 0.305934 0.461027 0.000000
vt 0.305934 0.398826 0.000000
vt 0.306930 0.398826 0.000000
vt 0.306930 0.461027 0.000000
vt 0.205342 0.495169 0.000000
vt 0.205342 0.438530 0.000000
vt 0.322480 0.398826 0.000000
vt 0.322480 0.461027 0.000000
vt 0.372874 0.083145 0.000000
vt 0.335330 0.083145 0.000000
vt 0.332759 0.083145 0.000000
vt 0.330942 0.081328 0.000000
vt 0.294463 0.044849 0.000000
vt 0.292645 0.043031 0.000000
vt 0.292645 0.040461 0.000000
vt 0.292645 0.002917 0.000000
vt 0.372874 0.002917 0.000000
vt 0.291380 0.398826 0.000000
vt 0.291380 0.461027 0.000000
vt 0.363384 0.223008 0.000000
vt 0.363384 0.260551 0.000000
vt 0.363384 0.263122 0.000000
vt 0.361566 0.264940 0.000000
vt 0.325088 0.301418 0.000000
vt 0.323270 0.303236 0.000000
vt 0.320699 0.303236 0.000000
vt 0.283156 0.303236 0.000000
vt 0.283156 0.223008 0.000000
vt 0.478915 0.328368 0.000000
vt 0.478915 0.385007 0.000000
vt 0.492168 0.385007 0.000000
vt 0.492168 0.328368 0.000000
vt 0.478447 0.065118 0.000000
vt 0.492588 0.065118 0.000000
vt 0.492588 0.002917 0.000000
vt 0.478447 0.002917 0.000000
vt 0.476746 0.065118 0.000000
vt 0.477742 0.065118 0.000000
vt 0.477742 0.002917 0.000000
vt 0.476746 0.002917 0.000000
vt 0.478008 0.328368 0.000000
vt 0.478008 0.385007 0.000000
vt 0.493292 0.065118 0.000000
vt 0.493292 0.002917 0.000000
vt 0.222306 0.384112 0.000000
vt 0.222306 0.303884 0.000000
vt 0.142078 0.303884 0.000000
vt 0.142078 0.341427 0.000000
vt 0.142078 0.343998 0.000000
vt 0.143896 0.345816 0.000000
vt 0.180374 0.382294 0.000000
vt 0.182192 0.384112 0.000000
vt 0.184763 0.384112 0.000000
vt 0.462192 0.002917 0.000000
vt 0.462192 0.065118 0.000000
vt 0.162206 0.242318 0.000000
vt 0.081977 0.242318 0.000000
vt 0.081977 0.322547 0.000000
vt 0.119521 0.322547 0.000000
vt 0.122092 0.322547 0.000000
vt 0.123909 0.320729 0.000000
vt 0.160388 0.284250 0.000000
vt 0.162206 0.282433 0.000000
vt 0.162206 0.279862 0.000000
vt 0.900722 0.009751 0.000000
vt 0.912776 0.009751 0.000000
vt 0.912776 0.061268 0.000000
vt 0.900722 0.061268 0.000000
vt 0.885809 0.066327 0.000000
vt 0.885809 0.009751 0.000000
vt 0.898670 0.009751 0.000000
vt 0.898670 0.066327 0.000000
vt 0.884261 0.066327 0.000000
vt 0.884261 0.009751 0.000000
vt 0.885168 0.009751 0.000000
vt 0.885168 0.066327 0.000000
vt 0.899897 0.061268 0.000000
vt 0.899897 0.009751 0.000000
vt 0.899311 0.009751 0.000000
vt 0.899311 0.066327 0.000000
vt 0.432632 0.149129 0.000000
vt 0.402058 0.149129 0.000000
vt 0.399964 0.149129 0.000000
vt 0.398484 0.147649 0.000000
vt 0.368777 0.117941 0.000000
vt 0.367296 0.116461 0.000000
vt 0.367296 0.114368 0.000000
vt 0.367296 0.083793 0.000000
vt 0.432632 0.083793 0.000000
vt 0.871024 0.009751 0.000000
vt 0.871024 0.066327 0.000000
vt 0.771059 0.009751 0.000000
vt 0.771059 0.052264 0.000000
vt 0.771059 0.055175 0.000000
vt 0.769001 0.057233 0.000000
vt 0.727694 0.098540 0.000000
vt 0.725636 0.100598 0.000000
vt 0.722725 0.100598 0.000000
vt 0.680213 0.100598 0.000000
vt 0.680213 0.009751 0.000000
vt 0.834607 0.147485 0.000000
vt 0.834607 0.199001 0.000000
vt 0.846661 0.199001 0.000000
vt 0.846661 0.147485 0.000000
vt 0.779942 0.327222 0.000000
vt 0.792804 0.327222 0.000000
vt 0.792804 0.270647 0.000000
vt 0.779942 0.270647 0.000000
vt 0.778395 0.327222 0.000000
vt 0.779301 0.327222 0.000000
vt 0.779301 0.270647 0.000000
vt 0.778395 0.270647 0.000000
vt 0.833782 0.147485 0.000000
vt 0.833782 0.199001 0.000000
vt 0.793445 0.327222 0.000000
vt 0.793445 0.270647 0.000000
vt 0.438959 0.068253 0.000000
vt 0.438959 0.002917 0.000000
vt 0.373623 0.002917 0.000000
vt 0.373623 0.033492 0.000000
vt 0.373623 0.035585 0.000000
vt 0.375103 0.037065 0.000000
vt 0.404810 0.066773 0.000000
vt 0.406291 0.068253 0.000000
vt 0.408384 0.068253 0.000000
vt 0.765157 0.270647 0.000000
vt 0.765157 0.327222 0.000000
vt 0.679420 0.009751 0.000000
vt 0.588573 0.009751 0.000000
vt 0.588573 0.100598 0.000000
vt 0.631086 0.100598 0.000000
vt 0.633997 0.100598 0.000000
vt 0.636055 0.098540 0.000000
vt 0.677362 0.057233 0.000000
vt 0.679420 0.055175 0.000000
vt 0.679420 0.052264 0.000000
vt 0.037060 0.431710 0.000000
vt 0.037060 0.474242 0.000000
vt 0.037060 0.389178 0.000000
vt 0.370460 0.385147 0.000000
vt 0.370460 0.427679 0.000000
vt 0.370460 0.470210 0.000000
vt 0.394500 0.368448 0.000000
vt 0.434306 0.368448 0.000000
vt 0.434306 0.410980 0.000000
vt 0.394500 0.410980 0.000000
vt 0.434306 0.453512 0.000000
vt 0.394500 0.453512 0.000000
vt 0.171814 0.384760 0.000000
vt 0.175614 0.384760 0.000000
vt 0.179414 0.384760 -0.000000
vt 0.183213 0.384760 0.000000
vt 0.187013 0.384760 0.000000
vt 0.190813 0.384760 0.000000
vt 0.194613 0.384760 0.000000
vt 0.198413 0.384760 -0.000000
vt 0.202213 0.384760 0.000000
vt 0.171814 0.453157 0.000000
vt 0.175614 0.453157 0.000000
vt 0.179414 0.453157 -0.000000
vt 0.183213 0.453157 0.000000
vt 0.187013 0.453157 0.000000
vt 0.190813 0.453157 0.000000
vt 0.194613 0.453157 0.000000
vt 0.198413 0.453157 -0.000000
vt 0.202213 0.453157 0.000000
vt 0.646092 0.009323 0.168557
vt 0.642543 0.009323 0.126548
vt 0.635959 0.009323 0.069950
vt 0.627132 0.009323 0.005588
vt 0.617129 0.009323 -0.058773
vt 0.607156 0.009323 -0.115371
vt 0.598416 0.009323 -0.157380
vt 0.591962 0.009323 -0.179733
vt 0.588573 0.009323 -0.179733
vt 0.042367 0.002269 0.080017
vt 0.039815 0.002269 0.060074
vt 0.035079 0.002269 0.033206
vt 0.028731 0.002269 0.002653
vt 0.021537 0.002269 -0.027901
vt 0.014365 0.002269 -0.054769
vt 0.008078 0.002269 -0.074711
vt 0.003437 0.002269 -0.085322
vt 0.001000 0.002269 -0.085322
vt 0.463905 0.065766 0.000000
vt 0.467331 0.065766 0.000000
vt 0.470757 0.065766 -0.000000
vt 0.474183 0.065766 0.000000
vt 0.477609 0.065766 0.000000
vt 0.481036 0.065766 0.000000
vt 0.484462 0.065766 0.000000
vt 0.487888 0.065766 -0.000000
vt 0.491314 0.065766 0.000000
vt 0.463905 0.127436 0.000000
vt 0.467331 0.127436 0.000000
vt 0.470757 0.127436 -0.000000
vt 0.474183 0.127436 0.000000
vt 0.477609 0.127436 0.000000
vt 0.481036 0.127436 0.000000
vt 0.484462 0.127436 0.000000
vt 0.487888 0.127436 -0.000000
vt 0.491314 0.127436 0.000000
vt 0.031012 0.002269 0.058053
vt 0.029160 0.002269 0.043585
vt 0.025725 0.002269 0.024092
vt 0.021119 0.002269 0.001925
vt 0.015900 0.002269 -0.020242
vt 0.010696 0.002269 -0.039735
vt 0.006135 0.002269 -0.054204
vt 0.002768 0.002269 -0.061902
vt 0.001000 0.002269 -0.061902
vt 0.031012 0.002269 0.058053
vt 0.029160 0.002269 0.043585
vt 0.025725 0.002269 0.024091
vt 0.021119 0.002269 0.001925
vt 0.015900 0.002269 -0.020242
vt 0.010696 0.002269 -0.039735
vt 0.006135 0.002269 -0.054204
vt 0.002768 0.002269 -0.061902
vt 0.001000 0.002269 -0.061902
vt 0.323235 0.869037 0.000000
vt 0.353645 0.869037 0.000000
vt 0.384055 0.869037 0.000000
vt 0.414465 0.869037 0.000000
vt 0.444875 0.869037 0.000000
vt 0.323235 0.875795 0.000000
vt 0.353645 0.875795 0.000000
vt 0.384055 0.875795 0.000000
vt 0.414465 0.875795 0.000000
vt 0.444875 0.875795 0.000000
vt 0.323235 0.882553 0.000000
vt 0.353645 0.882553 0.000000
vt 0.384055 0.882553 0.000000
vt 0.414465 0.882553 0.000000
vt 0.444875 0.882553 0.000000
vt 0.323235 0.889311 0.000000
vt 0.353645 0.889311 0.000000
vt 0.384055 0.889311 0.000000
vt 0.414465 0.889311 0.000000
vt 0.444875 0.889311 0.000000
vt 0.323235 0.896068 0.000000
vt 0.353645 0.896068 0.000000
vt 0.384055 0.896068 0.000000
vt 0.414465 0.896068 0.000000
vt 0.444875 0.896068 0.000000
vt 0.323235 0.902826 0.000000
vt 0.353645 0.902826 0.000000
vt 0.384055 0.902826 0.000000
vt 0.414465 0.902826 0.000000
vt 0.444875 0.902826 0.000000
vt 0.323235 0.909584 0.000000
vt 0.353645 0.909584 0.000000
vt 0.384055 0.909584 0.000000
vt 0.414465 0.909584 0.000000
vt 0.444875 0.909584 0.000000
vt 0.323235 0.916342 0.000000
vt 0.353645 0.916342 0.000000
vt 0.384055 0.916342 0.000000
vt 0.414465 0.916342 0.000000
vt 0.444875 0.916342 0.000000
vt 0.323235 0.923099 0.000000
vt 0.353645 0.923099 0.000000
vt 0.384055 0.923099 0.000000
vt 0.414465 0.923099 0.000000
vt 0.444875 0.923099 0.000000
vt 0.323235 0.929857 0.000000
vt 0.353645 0.929857 0.000000
vt 0.384055 0.929857 0.000000
vt 0.414465 0.929857 0.000000
vt 0.444875 0.929857 0.000000
vt 0.323235 0.936615 0.000000
vt 0.353645 0.936615 0.000000
vt 0.384055 0.936615 0.000000
vt 0.414465 0.936615 0.000000
vt 0.444875 0.936615 0.000000
vt 0.323235 0.943373 0.000000
vt 0.353645 0.943373 0.000000
vt 0.384055 0.943373 0.000000
vt 0.414465 0.943373 0.000000
vt 0.444875 0.943373 0.000000
vt 0.323235 0.950130 0.000000
vt 0.353645 0.950130 0.000000
vt 0.384055 0.950130 0.000000
vt 0.414465 0.950130 0.000000
vt 0.444875 0.950130 0.000000
vt 0.323235 0.956888 0.000000
vt 0.353645 0.956888 0.000000
vt 0.384055 0.956888 0.000000
vt 0.414465 0.956888 0.000000
vt 0.444875 0.956888 0.000000
vt 0.323235 0.963646 0.000000
vt 0.353645 0.963646 0.000000
vt 0.384055 0.963646 0.000000
vt 0.414465 0.963646 0.000000
vt 0.444875 0.963646 0.000000
vt 0.323235 0.970404 0.000000
vt 0.353645 0.970404 0.000000
vt 0.384055 0.970404 0.000000
vt 0.414465 0.970404 0.000000
vt 0.444875 0.970404 0.000000
vt 0.323235 0.977162 0.000000
vt 0.353645 0.977162 0.000000
vt 0.384055 0.977162 0.000000
vt 0.414465 0.977162 0.000000
vt 0.444875 0.977162 0.000000
vt 0.323235 0.983919 0.000000
vt 0.353645 0.983919 0.000000
vt 0.384055 0.983919 0.000000
vt 0.414465 0.983919 0.000000
vt 0.444875 0.983919 0.000000
vt 0.323235 0.990677 0.000000
vt 0.353645 0.990677 0.000000
vt 0.384055 0.990677 0.000000
vt 0.414465 0.990677 0.000000
vt 0.444875 0.990677 0.000000
vt 0.634602 0.192301 0.000000
vt 0.696541 0.192301 0.000000
vt 0.634602 0.254240 0.000000
vt 0.696541 0.254240 0.000000
vt 0.748819 0.192301 0.000000
vt 0.748819 0.252816 0.000000
vt 0.823302 0.009751 0.000000
vt 0.823302 0.070265 0.000000
vt 0.827924 0.294205 0.000000
vt 0.697369 0.192301 0.000000
vt 0.687263 0.192301 0.000000
vt 0.832909 0.289220 0.000000
vt 0.912709 0.135466 0.000000
vt 0.687263 0.254240 0.000000
vt 0.697369 0.252816 0.000000
vt 0.917694 0.140451 0.000000
vt 0.884414 0.140451 0.000000
vt 0.910686 0.135037 0.000000
vt 0.643880 0.254240 0.000000
vt 0.889399 0.135466 0.000000
vt 0.856219 0.289220 0.000000
vt 0.643880 0.192301 0.000000
vt 0.910686 0.076617 0.000000
vt 0.861204 0.294205 0.000000
vt 0.832909 0.322500 0.000000
vt 0.771852 0.009751 0.000000
vt 0.739754 0.192301 0.000000
vt 0.827924 0.317515 0.000000
vt 0.917694 0.163760 0.000000
vt 0.739754 0.252816 0.000000
vt 0.771852 0.070265 0.000000
vt 0.912709 0.168746 0.000000
vt 0.861204 0.317515 0.000000
vt 0.869768 0.076617 0.000000
vt 0.814237 0.009751 0.000000
vt 0.856219 0.322500 0.000000
vt 0.889399 0.168746 0.000000
vt 0.814237 0.070265 0.000000
vt 0.869768 0.135037 0.000000
vt 0.884414 0.163760 0.000000
vt 0.001000 0.002917 0.000000
vt 0.461183 0.002917 0.000000
vt 0.440050 0.002917 0.000000
vt 0.440050 0.143996 0.000000
vt 0.001000 0.124038 0.000000
vt 0.461183 0.143996 0.000000
vt 0.103978 0.002917 0.000000
vt 0.085834 0.002917 0.000000
vt 0.085834 0.124038 0.000000
vt 0.103978 0.124038 0.000000
vt 0.001000 0.124686 0.000000
vt 0.477249 0.144644 0.000000
vt 0.457131 0.144644 0.000000
vt 0.457131 0.278949 0.000000
vt 0.001000 0.241671 0.000000
vt 0.477249 0.278949 0.000000
vt 0.100461 0.124686 0.000000
vt 0.082937 0.124686 0.000000
vt 0.082937 0.241671 0.000000
vt 0.100461 0.241671 0.000000
vt 0.414120 0.182115 0.000000
vt 0.414120 0.282089 0.000000
vt 0.291548 0.002917 0.000000
vt 0.291548 0.100592 0.000000
vt 0.133854 0.383004 0.000000
vt 0.208505 0.002917 0.000000
vt 0.399145 0.182115 0.000000
vt 0.144371 0.372487 0.000000
vt 0.092016 0.382365 0.000000
vt 0.399145 0.282089 0.000000
vt 0.208505 0.100592 0.000000
vt 0.102534 0.392883 0.000000
vt 0.144371 0.442701 0.000000
vt 0.304033 0.303884 0.000000
vt 0.276917 0.002917 0.000000
vt 0.133854 0.432183 0.000000
vt 0.102534 0.442061 0.000000
vt 0.276917 0.100592 0.000000
vt 0.304033 0.398178 0.000000
vt 0.092016 0.452579 0.000000
vt 0.833782 0.076617 0.000000
vt 0.833782 0.147056 0.000000
vt 0.883647 0.218352 0.000000
vt 0.883647 0.288791 0.000000
vt 0.622886 0.265067 0.000000
vt 0.870273 0.076189 0.000000
vt 0.844333 0.147056 0.000000
vt 0.633284 0.254669 0.000000
vt 0.303802 0.160750 0.000000
vt 0.844333 0.076617 0.000000
vt 0.870273 0.009751 0.000000
vt 0.311280 0.168228 0.000000
vt 0.311280 0.203194 0.000000
vt 0.823739 0.009751 0.000000
vt 0.873096 0.218352 0.000000
vt 0.303802 0.210672 0.000000
vt 0.633284 0.324084 0.000000
vt 0.873096 0.288791 0.000000
vt 0.823739 0.076189 0.000000
vt 0.622886 0.313686 0.000000
vt 0.335770 0.083793 0.000000
vt 0.333099 0.086464 0.000000
vt 0.333099 0.096516 0.000000
vt 0.335770 0.096914 0.000000
vt 0.333497 0.099187 0.000000
vt 0.312257 0.182115 0.000000
vt 0.312257 0.182115 0.000000
vt 0.314308 0.066459 0.000000
vt 0.314308 0.091875 0.000000
vt 0.292645 0.091875 0.000000
vt 0.292645 0.066459 0.000000
vt 0.428840 0.244719 0.000000
vt 0.428840 0.271645 0.000000
vt 0.424864 0.271645 0.000000
vt 0.424864 0.244719 0.000000
vt 0.312257 0.220212 0.000000
vt 0.312257 0.220212 0.000000
vt 0.312257 0.182115 0.000000
vt 0.345787 0.083793 0.000000
vt 0.348060 0.099187 0.000000
vt 0.345787 0.096914 0.000000
vt 0.348458 0.086464 0.000000
vt 0.348458 0.096516 0.000000
vt 0.312257 0.220212 0.000000
vt 0.257850 0.101239 0.000000
vt 0.257850 0.119453 0.000000
vt 0.231665 0.103975 0.000000
vt 0.208505 0.101239 0.000000
vt 0.208505 0.119453 0.000000
vt 0.231665 0.122189 0.000000
vt 0.256778 0.119453 0.000000
vt 0.256778 0.101239 0.000000
vt 0.357687 0.540573 0.323969
vt 0.366649 0.540573 0.328362
vt 0.371952 0.540573 0.314372
vt 0.371415 0.540573 0.293048
vt 0.399748 0.540573 0.415716
vt 0.399892 0.540573 0.443280
vt 0.388463 0.540573 0.443280
vt 0.377033 0.540573 0.443280
vt 0.365604 0.540573 0.443280
vt 0.354175 0.540573 0.443280
vt 0.269835 0.540573 -0.013783
vt 0.240065 0.540573 -0.172519
vt 0.217855 0.540573 -0.312109
vt 0.205884 0.540573 -0.415716
vt 0.205740 0.540573 -0.443280
vt 0.237868 0.540573 -0.298958
vt 0.238138 0.540573 -0.279092
vt 0.247053 0.540573 -0.203972
vt 0.264175 0.540573 -0.097227
vt 0.290943 0.540573 0.048774
vt 0.324065 0.540573 0.215430
vt 0.345276 0.540573 0.298502
vt 0.354175 0.746299 0.443280
vt 0.308454 0.746299 0.113733
vt 0.342746 0.746299 0.443280
vt 0.342746 0.540573 0.443280
vt 0.354175 0.746299 0.443280
vt 0.342746 0.746299 0.443280
vt 0.331317 0.746299 0.443280
vt 0.331317 0.540573 0.443280
vt 0.319888 0.746299 0.443280
vt 0.319888 0.540573 0.443280
vt 0.308458 0.746299 0.443280
vt 0.308458 0.540573 0.443280
vt 0.302744 0.746299 0.443280
vt 0.302744 0.540573 0.443280
vt 0.399892 0.746299 0.443280
vt 0.388463 0.746299 0.443280
vt 0.377033 0.746299 0.443280
vt 0.365604 0.746299 0.443280
vt 0.354175 0.746299 0.443280
vt 0.342746 0.746299 0.443280
vt 0.240065 0.746299 -0.172518
vt 0.240065 0.746299 -0.172518
vt 0.217855 0.746299 -0.312108
vt 0.217855 0.746299 -0.312108
vt 0.205884 0.746299 -0.415715
vt 0.205884 0.746299 -0.415715
vt 0.205740 0.746299 -0.443280
vt 0.205740 0.746299 -0.443280
vt 0.399892 0.746299 0.443280
vt 0.388463 0.746299 0.443280
vt 0.377033 0.746299 0.443280
vt 0.365604 0.746299 0.443280
vt 0.240065 0.746299 -0.172518
vt 0.217855 0.746299 -0.312108
vt 0.205884 0.746299 -0.415715
vt 0.205740 0.746299 -0.443280
vt 0.399892 0.746299 0.443280
vt 0.388463 0.746299 0.443280
vt 0.377033 0.746299 0.443280
vt 0.365604 0.746299 0.443280
vt 0.267544 0.746848 0.000000
vt 0.267544 0.912078 0.000000
vt 0.281279 0.912078 0.000000
vt 0.281279 0.746848 0.000000
vt 0.295013 0.912078 0.000000
vt 0.295013 0.746848 0.000000
vt 0.253810 0.746848 0.000000
vt 0.253810 0.912078 0.000000
vt 0.308748 0.912078 0.000000
vt 0.308748 0.746848 0.000000
vt 0.240076 0.746848 0.000000
vt 0.240076 0.912078 0.000000
vt 0.322482 0.912078 0.000000
vt 0.322482 0.746848 0.000000
vt 0.226341 0.746848 0.000000
vt 0.226341 0.912078 0.000000
vt 0.400492 0.540573 0.000000
vt 0.400492 0.705803 0.000000
vt 0.407360 0.705803 0.000000
vt 0.407360 0.540573 0.000000
vt 0.212607 0.746848 0.000000
vt 0.212607 0.912078 0.000000
vt 0.399748 0.746299 0.415716
vt 0.369041 0.746299 0.286330
vt 0.354769 0.746299 0.238782
vt 0.352165 0.746299 0.254605
vt 0.346230 0.746299 0.253679
vt 0.337429 0.746299 0.235303
vt 0.325186 0.746299 0.192295
vt 0.264646 0.746299 -0.158339
vt 0.263704 0.746299 -0.176551
vt 0.244657 0.746299 -0.265099
vt 0.273488 0.746299 -0.090080
vt 0.289214 0.746299 0.007723
vt 0.451926 0.769799 0.000000
vt 0.445559 0.769799 0.000000
vt 0.445559 0.540573 0.000000
vt 0.451926 0.540573 0.000000
vt 0.399748 0.746299 0.415716
vt 0.399748 0.746299 0.415716
vt 0.205740 0.912078 0.000000
vt 0.205740 0.746848 0.000000
vt 0.353933 0.746299 0.221465
vt 0.333298 0.182115 -0.000000
vt 0.334891 0.182115 0.000000
vt 0.336484 0.182115 -0.000000
vt 0.338076 0.182115 -0.000000
vt 0.339669 0.182115 -0.000000
vt 0.341262 0.182115 -0.000000
vt 0.342855 0.182115 -0.000000
vt 0.344448 0.182115 -0.000000
vt 0.346041 0.182115 -0.000000
vt 0.333298 0.210787 -0.000000
vt 0.334891 0.210787 0.000000
vt 0.336484 0.210787 -0.000000
vt 0.338076 0.210787 -0.000000
vt 0.339669 0.210787 -0.000000
vt 0.341262 0.210787 -0.000000
vt 0.342855 0.210787 -0.000000
vt 0.344448 0.210787 -0.000000
vt 0.346041 0.210787 -0.000000
vt 0.055605 0.002269 0.105624
vt 0.052236 0.002269 0.079300
vt 0.045985 0.002269 0.043833
vt 0.037606 0.002269 0.003502
vt 0.028110 0.002269 -0.036829
vt 0.018642 0.002269 -0.072296
vt 0.010344 0.002269 -0.098620
vt 0.004217 0.002269 -0.112627
vt 0.001000 0.002269 -0.112627
vt 0.055605 0.002269 0.105624
vt 0.052236 0.002269 0.079300
vt 0.045985 0.002269 0.043833
vt 0.037606 0.002269 0.003502
vt 0.028110 0.002269 -0.036829
vt 0.018642 0.002269 -0.072296
vt 0.010344 0.002269 -0.098620
vt 0.004217 0.002269 -0.112627
vt 0.001000 0.002269 -0.112627
vt 0.056963 0.431710 0.000000
vt 0.056963 0.389178 0.000000
vt 0.056963 0.474242 0.000000
vt 0.390363 0.385147 0.000000
vt 0.390363 0.427679 0.000000
vt 0.390363 0.470210 0.000000
vt 0.646135 0.009323 0.179733
vt 0.169914 0.384760 0.000000
vt 0.588616 0.009323 -0.168557
vt 0.204113 0.384760 0.000000
vt 0.169914 0.453157 0.000000
vt 0.042398 0.002269 0.085322
vt 0.204113 0.453157 0.000000
vt 0.001031 0.002269 -0.080017
vt 0.031035 0.002269 0.061902
vt 0.462192 0.065766 0.000000
vt 0.001022 0.002269 -0.058053
vt 0.493027 0.065766 0.000000
vt 0.462192 0.127436 0.000000
vt 0.031035 0.002269 0.061902
vt 0.493027 0.127436 0.000000
vt 0.001022 0.002269 -0.058053
vt 0.168961 0.442701 0.000000
vt 0.337055 0.303884 0.000000
vt 0.168961 0.372487 0.000000
vt 0.364133 0.182115 0.000000
vt 0.067427 0.382365 0.000000
vt 0.364133 0.282089 0.000000
vt 0.067427 0.452579 0.000000
vt 0.337055 0.398178 0.000000
vt 0.286319 0.210672 0.000000
vt 0.848428 0.218352 0.000000
vt 0.286319 0.160750 0.000000
vt 0.869002 0.076617 0.000000
vt 0.657594 0.254669 0.000000
vt 0.869002 0.147056 0.000000
vt 0.657594 0.324084 0.000000
vt 0.848428 0.288791 0.000000
vt 0.328073 0.099187 0.000000
vt 0.415377 0.244719 0.000000
vt 0.328073 0.083793 0.000000
vt 0.331305 0.182115 0.000000
vt 0.328073 0.086464 0.000000
vt 0.269430 0.101239 0.000000
vt 0.328073 0.096516 0.000000
vt 0.245198 0.101239 0.000000
vt 0.353484 0.083793 0.000000
vt 0.331305 0.220212 0.000000
vt 0.353484 0.099187 0.000000
vt 0.415377 0.271645 0.000000
vt 0.353484 0.096516 0.000000
vt 0.245198 0.119453 0.000000
vt 0.353484 0.086464 0.000000
vt 0.269430 0.119453 0.000000
vt 0.331305 0.182115 0.000000
vt 0.331305 0.182115 0.000000
vt 0.331305 0.220212 0.000000
vt 0.331305 0.220212 0.000000
vt 0.055646 0.002269 0.112627
vt 0.332501 0.182115 -0.000000
vt 0.001041 0.002269 -0.105624
vt 0.346837 0.182115 -0.000000
vt 0.332501 0.210787 -0.000000
vt 0.055646 0.002269 0.112627
vt 0.346837 0.210787 -0.000000
vt 0.001041 0.002269 -0.105624
vt 0.478915 0.213795 0.000000
vt 0.478915 0.270433 0.000000
vt 0.492168 0.270433 0.000000
vt 0.492168 0.213795 0.000000
vt 0.451243 0.476750 0.000000
vt 0.465384 0.476750 0.000000
vt 0.465384 0.414549 0.000000
vt 0.451243 0.414549 0.000000
vt 0.449542 0.476750 0.000000
vt 0.450539 0.476750 0.000000
vt 0.450539 0.414549 0.000000
vt 0.449542 0.414549 0.000000
vt 0.478008 0.213795 0.000000
vt 0.478008 0.270433 0.000000
vt 0.466089 0.476750 0.000000
vt 0.466089 0.414549 0.000000
vt 0.303284 0.384112 0.000000
vt 0.303284 0.303884 0.000000
vt 0.223055 0.303884 0.000000
vt 0.223055 0.341427 0.000000
vt 0.223055 0.343998 0.000000
vt 0.224873 0.345816 0.000000
vt 0.261352 0.382294 0.000000
vt 0.263169 0.384112 0.000000
vt 0.265740 0.384112 0.000000
vt 0.434989 0.414549 0.000000
vt 0.434989 0.476750 0.000000
vt 0.081228 0.242318 0.000000
vt 0.001000 0.242318 0.000000
vt 0.001000 0.322547 0.000000
vt 0.038543 0.322547 0.000000
vt 0.041114 0.322547 0.000000
vt 0.042932 0.320729 0.000000
vt 0.079410 0.284250 0.000000
vt 0.081228 0.282433 0.000000
vt 0.081228 0.279862 0.000000
vt 0.478915 0.271081 0.000000
vt 0.492168 0.271081 0.000000
vt 0.492168 0.327720 0.000000
vt 0.478915 0.327720 0.000000
vt 0.354450 0.447348 0.000000
vt 0.354450 0.385147 0.000000
vt 0.368591 0.385147 0.000000
vt 0.368591 0.447348 0.000000
vt 0.352749 0.447348 0.000000
vt 0.352749 0.385147 0.000000
vt 0.353745 0.385147 0.000000
vt 0.353745 0.447348 0.000000
vt 0.478008 0.327720 0.000000
vt 0.478008 0.271081 0.000000
vt 0.369296 0.385147 0.000000
vt 0.369296 0.447348 0.000000
vt 0.366547 0.181468 0.000000
vt 0.329004 0.181468 0.000000
vt 0.326433 0.181468 0.000000
vt 0.324615 0.179650 0.000000
vt 0.288137 0.143171 0.000000
vt 0.286319 0.141353 0.000000
vt 0.286319 0.138783 0.000000
vt 0.286319 0.101239 0.000000
vt 0.366547 0.101239 0.000000
vt 0.338195 0.385147 0.000000
vt 0.338195 0.447348 0.000000
vt 0.282407 0.223008 0.000000
vt 0.282407 0.260551 0.000000
vt 0.282407 0.263122 0.000000
vt 0.280589 0.264940 0.000000
vt 0.244110 0.301418 0.000000
vt 0.242292 0.303236 0.000000
vt 0.239722 0.303236 0.000000
vt 0.202178 0.303236 0.000000
vt 0.202178 0.223008 0.000000
vt 0.898630 0.169174 0.000000
vt 0.898630 0.220691 0.000000
vt 0.910683 0.220691 0.000000
vt 0.910683 0.169174 0.000000
vt 0.672820 0.311244 0.000000
vt 0.685682 0.311244 0.000000
vt 0.685682 0.254669 0.000000
vt 0.672820 0.254669 0.000000
vt 0.671273 0.311244 0.000000
vt 0.672179 0.311244 0.000000
vt 0.672179 0.254669 0.000000
vt 0.671273 0.254669 0.000000
vt 0.897804 0.169174 0.000000
vt 0.897804 0.220691 0.000000
vt 0.686323 0.311244 0.000000
vt 0.686323 0.254669 0.000000
vt 0.132763 0.388530 0.000000
vt 0.132763 0.323194 0.000000
vt 0.067427 0.323194 0.000000
vt 0.067427 0.353769 0.000000
vt 0.067427 0.355862 0.000000
vt 0.068907 0.357343 0.000000
vt 0.098614 0.387050 0.000000
vt 0.100095 0.388530 0.000000
vt 0.102188 0.388530 0.000000
vt 0.658035 0.254669 0.000000
vt 0.658035 0.311244 0.000000
vt 0.679420 0.101026 0.000000
vt 0.588573 0.101026 0.000000
vt 0.588573 0.191873 0.000000
vt 0.631086 0.191873 0.000000
vt 0.633997 0.191873 0.000000
vt 0.636055 0.189815 0.000000
vt 0.677362 0.148508 0.000000
vt 0.679420 0.146450 0.000000
vt 0.679420 0.143539 0.000000
vt 0.885239 0.169174 0.000000
vt 0.897293 0.169174 0.000000
vt 0.897293 0.220691 0.000000
vt 0.885239 0.220691 0.000000
vt 0.603358 0.319744 0.000000
vt 0.603358 0.263169 0.000000
vt 0.616220 0.263169 0.000000
vt 0.616220 0.319744 0.000000
vt 0.601811 0.319744 0.000000
vt 0.601811 0.263169 0.000000
vt 0.602717 0.263169 0.000000
vt 0.602717 0.319744 0.000000
vt 0.884414 0.220691 0.000000
vt 0.884414 0.169174 0.000000
vt 0.616861 0.263169 0.000000
vt 0.616861 0.319744 0.000000
vt 0.066336 0.388530 0.000000
vt 0.035761 0.388530 0.000000
vt 0.033668 0.388530 0.000000
vt 0.032188 0.387050 0.000000
vt 0.002480 0.357343 0.000000
vt 0.001000 0.355862 0.000000
vt 0.001000 0.353769 0.000000
vt 0.001000 0.323194 0.000000
vt 0.066336 0.323194 0.000000
vt 0.588573 0.263169 0.000000
vt 0.588573 0.319744 0.000000
vt 0.771059 0.101026 0.000000
vt 0.771059 0.143539 0.000000
vt 0.771059 0.146450 0.000000
vt 0.769001 0.148508 0.000000
vt 0.727694 0.189815 0.000000
vt 0.725636 0.191873 0.000000
vt 0.722725 0.191873 0.000000
vt 0.680213 0.191873 0.000000
vt 0.680213 0.101026 0.000000
vt 0.478008 0.128083 0.000000
vt 0.497911 0.128083 0.000000
vt 0.497911 0.170615 0.000000
vt 0.478008 0.170615 0.000000
vt 0.478008 0.213147 0.000000
vt 0.467253 0.414549 0.000000
vt 0.467253 0.457081 0.000000
vt 0.487156 0.457081 0.000000
vt 0.487156 0.414549 0.000000
vt 0.467253 0.499613 0.000000
vt 0.394500 0.282737 0.000000
vt 0.394500 0.325269 0.000000
vt 0.434306 0.325269 0.000000
vt 0.434306 0.282737 0.000000
vt 0.434306 0.367800 0.000000
vt 0.394500 0.367800 0.000000
vt 0.257852 0.384760 0.000000
vt 0.261652 0.384760 0.000000
vt 0.261652 0.453157 0.000000
vt 0.257852 0.453157 0.000000
vt 0.265452 0.384760 -0.000000
vt 0.265452 0.453157 -0.000000
vt 0.269252 0.384760 0.000000
vt 0.269252 0.453157 0.000000
vt 0.273052 0.384760 0.000000
vt 0.273052 0.453157 0.000000
vt 0.276852 0.384760 0.000000
vt 0.276852 0.453157 0.000000
vt 0.280652 0.384760 0.000000
vt 0.280652 0.453157 0.000000
vt 0.284451 0.384760 -0.000000
vt 0.284451 0.453157 -0.000000
vt 0.288251 0.384760 0.000000
vt 0.288251 0.453157 0.000000
vt 0.290151 0.384760 0.000000
vt 0.290151 0.453157 0.000000
vt 0.105200 0.434101 0.000000
vt 0.108626 0.434101 0.000000
vt 0.108626 0.495771 0.000000
vt 0.105200 0.495771 0.000000
vt 0.112052 0.434101 -0.000000
vt 0.112052 0.495771 -0.000000
vt 0.115479 0.434101 0.000000
vt 0.115479 0.495771 0.000000
vt 0.118905 0.434101 0.000000
vt 0.118905 0.495771 0.000000
vt 0.122331 0.434101 0.000000
vt 0.122331 0.495771 0.000000
vt 0.125757 0.434101 0.000000
vt 0.125757 0.495771 0.000000
vt 0.129183 0.434101 -0.000000
vt 0.129183 0.495771 -0.000000
vt 0.132609 0.434101 0.000000
vt 0.132609 0.495771 0.000000
vt 0.134322 0.434101 0.000000
vt 0.134322 0.495771 0.000000
vt 0.323235 0.746848 0.000000
vt 0.353645 0.746848 0.000000
vt 0.353645 0.753606 0.000000
vt 0.323235 0.753606 0.000000
vt 0.384055 0.746848 0.000000
vt 0.384055 0.753606 0.000000
vt 0.414465 0.746848 0.000000
vt 0.414465 0.753606 0.000000
vt 0.444875 0.746848 0.000000
vt 0.444875 0.753606 0.000000
vt 0.353645 0.760363 0.000000
vt 0.323235 0.760363 0.000000
vt 0.384055 0.760363 0.000000
vt 0.414465 0.760363 0.000000
vt 0.444875 0.760363 0.000000
vt 0.353645 0.767121 0.000000
vt 0.323235 0.767121 0.000000
vt 0.384055 0.767121 0.000000
vt 0.414465 0.767121 0.000000
vt 0.444875 0.767121 0.000000
vt 0.353645 0.773879 0.000000
vt 0.323235 0.773879 0.000000
vt 0.384055 0.773879 0.000000
vt 0.414465 0.773879 0.000000
vt 0.444875 0.773879 0.000000
vt 0.353645 0.780637 0.000000
vt 0.323235 0.780637 0.000000
vt 0.384055 0.780637 0.000000
vt 0.414465 0.780637 0.000000
vt 0.444875 0.780637 0.000000
vt 0.353645 0.787395 0.000000
vt 0.323235 0.787395 0.000000
vt 0.384055 0.787395 0.000000
vt 0.414465 0.787395 0.000000
vt 0.444875 0.787395 0.000000
vt 0.353645 0.794152 0.000000
vt 0.323235 0.794152 0.000000
vt 0.384055 0.794152 0.000000
vt 0.414465 0.794152 0.000000
vt 0.444875 0.794152 0.000000
vt 0.353645 0.800910 0.000000
vt 0.323235 0.800910 0.000000
vt 0.384055 0.800910 0.000000
vt 0.414465 0.800910 0.000000
vt 0.444875 0.800910 0.000000
vt 0.353645 0.807668 0.000000
vt 0.323235 0.807668 0.000000
vt 0.384055 0.807668 0.000000
vt 0.414465 0.807668 0.000000
vt 0.444875 0.807668 0.000000
vt 0.353645 0.814426 0.000000
vt 0.323235 0.814426 0.000000
vt 0.384055 0.814426 0.000000
vt 0.414465 0.814426 0.000000
vt 0.444875 0.814426 0.000000
vt 0.353645 0.821183 0.000000
vt 0.323235 0.821183 0.000000
vt 0.384055 0.821183 0.000000
vt 0.414465 0.821183 0.000000
vt 0.444875 0.821183 0.000000
vt 0.353645 0.827941 0.000000
vt 0.323235 0.827941 0.000000
vt 0.384055 0.827941 0.000000
vt 0.414465 0.827941 0.000000
vt 0.444875 0.827941 0.000000
vt 0.353645 0.834699 0.000000
vt 0.323235 0.834699 0.000000
vt 0.384055 0.834699 0.000000
vt 0.414465 0.834699 0.000000
vt 0.444875 0.834699 0.000000
vt 0.353645 0.841457 0.000000
vt 0.323235 0.841457 0.000000
vt 0.384055 0.841457 0.000000
vt 0.414465 0.841457 0.000000
vt 0.444875 0.841457 0.000000
vt 0.353645 0.848215 0.000000
vt 0.323235 0.848215 0.000000
vt 0.384055 0.848215 0.000000
vt 0.414465 0.848215 0.000000
vt 0.444875 0.848215 0.000000
vt 0.353645 0.854972 0.000000
vt 0.323235 0.854972 0.000000
vt 0.384055 0.854972 0.000000
vt 0.414465 0.854972 0.000000
vt 0.444875 0.854972 0.000000
vt 0.353645 0.861730 0.000000
vt 0.323235 0.861730 0.000000
vt 0.384055 0.861730 0.000000
vt 0.414465 0.861730 0.000000
vt 0.444875 0.861730 0.000000
vt 0.353645 0.868488 0.000000
vt 0.323235 0.868488 0.000000
vt 0.384055 0.868488 0.000000
vt 0.414465 0.868488 0.000000
vt 0.444875 0.868488 0.000000
vt 0.822325 0.276570 0.000000
vt 0.827310 0.281555 0.000000
vt 0.827310 0.304865 0.000000
vt 0.822325 0.309850 0.000000
vt 0.799015 0.309850 0.000000
vt 0.794030 0.304865 0.000000
vt 0.794030 0.281555 0.000000
vt 0.799015 0.276570 0.000000
vt 0.861818 0.294205 0.000000
vt 0.866803 0.289220 0.000000
vt 0.890113 0.289220 0.000000
vt 0.895098 0.294205 0.000000
vt 0.895098 0.317515 0.000000
vt 0.890113 0.322500 0.000000
vt 0.866803 0.322500 0.000000
vt 0.861818 0.317515 0.000000
vt 0.780293 0.147337 0.000000
vt 0.823676 0.147337 0.000000
vt 0.823676 0.209276 0.000000
vt 0.780293 0.209276 0.000000
vt 0.749256 0.209705 0.000000
vt 0.791641 0.209705 0.000000
vt 0.791641 0.270219 0.000000
vt 0.749256 0.270219 0.000000
vt 0.771852 0.070694 0.000000
vt 0.814237 0.070694 0.000000
vt 0.814237 0.131208 0.000000
vt 0.771852 0.131208 0.000000
vt 0.723731 0.270647 0.000000
vt 0.764649 0.270647 0.000000
vt 0.764649 0.329067 0.000000
vt 0.723731 0.329067 0.000000
vt 0.832954 0.147337 0.000000
vt 0.832954 0.209276 0.000000
vt 0.771015 0.209276 0.000000
vt 0.771015 0.147337 0.000000
vt 0.800706 0.209705 0.000000
vt 0.800706 0.270219 0.000000
vt 0.823302 0.070694 0.000000
vt 0.823302 0.131208 0.000000
vt 0.189587 0.002917 0.000000
vt 0.189587 0.124038 0.000000
vt 0.104752 0.124038 0.000000
vt 0.104752 0.002917 0.000000
vt 0.434989 0.385798 0.000000
vt 0.434989 0.244719 0.000000
vt 0.456121 0.244719 0.000000
vt 0.456121 0.385798 0.000000
vt 0.207730 0.002917 0.000000
vt 0.207730 0.124038 0.000000
vt 0.101589 0.241671 0.000000
vt 0.183527 0.241671 0.000000
vt 0.183527 0.124686 0.000000
vt 0.101589 0.124686 0.000000
vt 0.477249 0.279596 0.000000
vt 0.457131 0.279596 0.000000
vt 0.457131 0.413901 0.000000
vt 0.477249 0.413901 0.000000
vt 0.201050 0.124686 0.000000
vt 0.201050 0.241671 0.000000
vt 0.202178 0.124686 0.000000
vt 0.270591 0.124686 0.000000
vt 0.270591 0.222360 0.000000
vt 0.202178 0.222360 0.000000
vt 0.415377 0.149777 0.000000
vt 0.448399 0.149777 0.000000
vt 0.448399 0.244071 0.000000
vt 0.415377 0.244071 0.000000
vt 0.378268 0.384499 0.000000
vt 0.378268 0.284525 0.000000
vt 0.393243 0.284525 0.000000
vt 0.393243 0.384499 0.000000
vt 0.285222 0.124686 0.000000
vt 0.285222 0.222360 0.000000
vt 0.180438 0.242318 0.000000
vt 0.187916 0.249797 0.000000
vt 0.187916 0.284763 0.000000
vt 0.180438 0.292241 0.000000
vt 0.162955 0.292241 0.000000
vt 0.162955 0.242318 0.000000
vt 0.688582 0.263642 0.000000
vt 0.698980 0.253244 0.000000
vt 0.723289 0.253244 0.000000
vt 0.723289 0.322659 0.000000
vt 0.698980 0.322659 0.000000
vt 0.688582 0.312261 0.000000
vt 0.599125 0.192301 0.000000
vt 0.623793 0.192301 0.000000
vt 0.623793 0.262741 0.000000
vt 0.599125 0.262741 0.000000
vt 0.801143 0.209705 0.000000
vt 0.847677 0.209705 0.000000
vt 0.847677 0.276142 0.000000
vt 0.801143 0.276142 0.000000
vt 0.588573 0.262741 0.000000
vt 0.588573 0.192301 0.000000
vt 0.873096 0.217924 0.000000
vt 0.873096 0.147485 0.000000
vt 0.883647 0.147485 0.000000
vt 0.883647 0.217924 0.000000
vt 0.344627 0.083793 0.000000
vt 0.344627 0.096914 0.000000
vt 0.342354 0.099187 0.000000
vt 0.336930 0.099187 0.000000
vt 0.336930 0.096516 0.000000
vt 0.341956 0.096516 0.000000
vt 0.341956 0.086464 0.000000
vt 0.354644 0.083793 0.000000
vt 0.362341 0.083793 0.000000
vt 0.362341 0.086464 0.000000
vt 0.357315 0.086464 0.000000
vt 0.367296 0.137358 0.000000
vt 0.386345 0.137358 0.000000
vt 0.386345 0.137358 0.000000
vt 0.367296 0.137358 0.000000
vt 0.409204 0.149777 0.000000
vt 0.409204 0.175193 0.000000
vt 0.387541 0.175193 0.000000
vt 0.387541 0.149777 0.000000
vt 0.218805 0.384760 0.000000
vt 0.218805 0.411686 0.000000
vt 0.214828 0.411686 0.000000
vt 0.214828 0.384760 0.000000
vt 0.205342 0.411686 0.000000
vt 0.205342 0.384760 0.000000
vt 0.367296 0.175455 0.000000
vt 0.367296 0.175455 0.000000
vt 0.386345 0.175455 0.000000
vt 0.386345 0.175455 0.000000
vt 0.367296 0.137358 0.000000
vt 0.367296 0.175455 0.000000
vt 0.386345 0.175455 0.000000
vt 0.315420 0.079112 0.000000
vt 0.315420 0.097325 0.000000
vt 0.327000 0.097325 0.000000
vt 0.327000 0.079112 0.000000
vt 0.396783 0.060323 0.000000
vt 0.373623 0.057586 0.000000
vt 0.373623 0.075800 0.000000
vt 0.396783 0.078537 0.000000
vt 0.162935 0.540573 0.323969
vt 0.150524 0.540573 0.298502
vt 0.129312 0.540573 0.215430
vt 0.096191 0.540573 0.048774
vt 0.069422 0.540573 -0.097227
vt 0.052300 0.540573 -0.203972
vt 0.043385 0.540573 -0.279092
vt 0.043116 0.540573 -0.298958
vt 0.010988 0.540573 -0.443280
vt 0.011132 0.540573 -0.415716
vt 0.023103 0.540573 -0.312109
vt 0.045312 0.540573 -0.172519
vt 0.075082 0.540573 -0.013783
vt 0.159423 0.540573 0.443280
vt 0.170852 0.540573 0.443280
vt 0.182281 0.540573 0.443280
vt 0.193710 0.540573 0.443280
vt 0.205139 0.540573 0.443280
vt 0.204995 0.540573 0.415716
vt 0.176663 0.540573 0.293048
vt 0.177200 0.540573 0.314372
vt 0.171897 0.540573 0.328362
vt 0.159423 0.746299 0.443280
vt 0.147993 0.746299 0.443280
vt 0.113702 0.746299 0.113733
vt 0.147993 0.540573 0.443280
vt 0.147993 0.746299 0.443280
vt 0.159423 0.746299 0.443280
vt 0.136564 0.540573 0.443280
vt 0.136564 0.746299 0.443280
vt 0.125135 0.540573 0.443280
vt 0.125135 0.746299 0.443280
vt 0.113706 0.540573 0.443280
vt 0.113706 0.746299 0.443280
vt 0.107991 0.540573 0.443280
vt 0.107991 0.746299 0.443280
vt 0.193710 0.746299 0.443280
vt 0.205139 0.746299 0.443280
vt 0.182281 0.746299 0.443280
vt 0.170852 0.746299 0.443280
vt 0.147993 0.746299 0.443280
vt 0.159423 0.746299 0.443280
vt 0.045313 0.746299 -0.172518
vt 0.045313 0.746299 -0.172518
vt 0.023103 0.746299 -0.312108
vt 0.023103 0.746299 -0.312108
vt 0.011132 0.746299 -0.415715
vt 0.011132 0.746299 -0.415715
vt 0.010988 0.746299 -0.443280
vt 0.010988 0.746299 -0.443280
vt 0.193710 0.746299 0.443280
vt 0.205139 0.746299 0.443280
vt 0.182281 0.746299 0.443280
vt 0.170852 0.746299 0.443280
vt 0.045313 0.746299 -0.172518
vt 0.023103 0.746299 -0.312108
vt 0.011132 0.746299 -0.415715
vt 0.010988 0.746299 -0.443280
vt 0.193710 0.746299 0.443280
vt 0.205139 0.746299 0.443280
vt 0.182281 0.746299 0.443280
vt 0.170852 0.746299 0.443280
vt 0.072792 0.746848 0.000000
vt 0.086526 0.746848 0.000000
vt 0.086526 0.912078 0.000000
vt 0.072792 0.912078 0.000000
vt 0.100261 0.746848 0.000000
vt 0.100261 0.912078 0.000000
vt 0.059058 0.746848 0.000000
vt 0.059058 0.912078 0.000000
vt 0.113995 0.746848 0.000000
vt 0.113995 0.912078 0.000000
vt 0.045323 0.746848 0.000000
vt 0.045323 0.912078 0.000000
vt 0.127729 0.746848 0.000000
vt 0.127729 0.912078 0.000000
vt 0.031589 0.746848 0.000000
vt 0.031589 0.912078 0.000000
vt 0.408003 0.540573 0.000000
vt 0.414871 0.540573 0.000000
vt 0.414871 0.705803 0.000000
vt 0.408003 0.705803 0.000000
vt 0.017855 0.746848 0.000000
vt 0.017855 0.912078 0.000000
vt 0.160017 0.746299 0.238782
vt 0.174289 0.746299 0.286330
vt 0.204995 0.746299 0.415716
vt 0.157412 0.746299 0.254605
vt 0.151478 0.746299 0.253679
vt 0.142677 0.746299 0.235303
vt 0.130434 0.746299 0.192295
vt 0.069893 0.746299 -0.158339
vt 0.049904 0.746299 -0.265099
vt 0.068952 0.746299 -0.176551
vt 0.078736 0.746299 -0.090080
vt 0.094461 0.746299 0.007723
vt 0.458901 0.769799 0.000000
vt 0.458901 0.540573 0.000000
vt 0.452534 0.540573 0.000000
vt 0.452534 0.769799 0.000000
vt 0.204995 0.746299 0.415716
vt 0.204995 0.746299 0.415716
vt 0.010988 0.912078 0.000000
vt 0.010988 0.746848 0.000000
vt 0.159180 0.746299 0.221465
vt 0.348481 0.182115 -0.000000
vt 0.350074 0.182115 0.000000
vt 0.350074 0.210787 0.000000
vt 0.348481 0.210787 -0.000000
vt 0.351667 0.182115 -0.000000
vt 0.351667 0.210787 -0.000000
vt 0.353260 0.182115 -0.000000
vt 0.353260 0.210787 -0.000000
vt 0.354853 0.182115 -0.000000
vt 0.354853 0.210787 -0.000000
vt 0.356445 0.182115 -0.000000
vt 0.356445 0.210787 -0.000000
vt 0.358038 0.182115 -0.000000
vt 0.358038 0.210787 -0.000000
vt 0.359631 0.182115 -0.000000
vt 0.359631 0.210787 -0.000000
vt 0.361224 0.182115 -0.000000
vt 0.361224 0.210787 -0.000000
vt 0.362021 0.182115 -0.000000
vt 0.362021 0.210787 -0.000000
vt 0.497911 0.213147 0.000000
vt 0.487156 0.499613 0.000000
vt 0.588616 0.009323 -0.168557
vt 0.588573 0.009323 -0.179733
vt 0.591962 0.009323 -0.179733
vt 0.598416 0.009323 -0.157380
vt 0.607156 0.009323 -0.115371
vt 0.617129 0.009323 -0.058773
vt 0.627132 0.009323 0.005588
vt 0.635959 0.009323 0.069950
vt 0.642543 0.009323 0.126548
vt 0.646092 0.009323 0.168557
vt 0.646135 0.009323 0.179733
vt 0.255952 0.384760 0.000000
vt 0.255952 0.453157 0.000000
vt 0.042398 0.002269 0.085322
vt 0.042367 0.002269 0.080017
vt 0.039815 0.002269 0.060074
vt 0.035079 0.002269 0.033206
vt 0.028731 0.002269 0.002653
vt 0.021537 0.002269 -0.027901
vt 0.014365 0.002269 -0.054769
vt 0.008078 0.002269 -0.074711
vt 0.003437 0.002269 -0.085322
vt 0.001000 0.002269 -0.085322
vt 0.001031 0.002269 -0.080017
vt 0.001022 0.002269 -0.058053
vt 0.001000 0.002269 -0.061902
vt 0.002768 0.002269 -0.061902
vt 0.006135 0.002269 -0.054204
vt 0.010696 0.002269 -0.039735
vt 0.015900 0.002269 -0.020242
vt 0.021119 0.002269 0.001925
vt 0.025725 0.002269 0.024092
vt 0.029160 0.002269 0.043585
vt 0.031012 0.002269 0.058053
vt 0.031035 0.002269 0.061902
vt 0.103487 0.434101 0.000000
vt 0.103487 0.495771 0.000000
vt 0.031035 0.002269 0.061902
vt 0.031012 0.002269 0.058053
vt 0.029160 0.002269 0.043585
vt 0.025725 0.002269 0.024091
vt 0.021119 0.002269 0.001925
vt 0.015900 0.002269 -0.020242
vt 0.010696 0.002269 -0.039735
vt 0.006135 0.002269 -0.054204
vt 0.002768 0.002269 -0.061902
vt 0.001000 0.002269 -0.061902
vt 0.001022 0.002269 -0.058053
vt 0.254999 0.447762 0.000000
vt 0.230410 0.447762 0.000000
vt 0.219892 0.437244 0.000000
vt 0.219892 0.388066 0.000000
vt 0.230410 0.377548 0.000000
vt 0.254999 0.377548 0.000000
vt 0.001000 0.382365 0.000000
vt 0.025589 0.382365 0.000000
vt 0.036107 0.392883 0.000000
vt 0.036107 0.442061 0.000000
vt 0.025589 0.452579 0.000000
vt 0.001000 0.452579 0.000000
vt 0.343256 0.284525 0.000000
vt 0.343256 0.384499 0.000000
vt 0.848428 0.147485 0.000000
vt 0.848428 0.217924 0.000000
vt 0.336930 0.083793 0.000000
vt 0.336930 0.086464 0.000000
vt 0.362341 0.099187 0.000000
vt 0.356917 0.099187 0.000000
vt 0.354644 0.096914 0.000000
vt 0.357315 0.096516 0.000000
vt 0.362341 0.096516 0.000000
vt 0.386345 0.137358 0.000000
vt 0.232545 0.119453 0.000000
vt 0.244125 0.119453 0.000000
vt 0.244125 0.101239 0.000000
vt 0.232545 0.101239 0.000000
vt 0.001041 0.002269 -0.105624
vt 0.001000 0.002269 -0.112627
vt 0.004217 0.002269 -0.112627
vt 0.010344 0.002269 -0.098620
vt 0.018642 0.002269 -0.072296
vt 0.028110 0.002269 -0.036829
vt 0.037606 0.002269 0.003502
vt 0.045985 0.002269 0.043833
vt 0.052236 0.002269 0.079300
vt 0.055605 0.002269 0.105624
vt 0.055646 0.002269 0.112627
vt 0.347685 0.182115 -0.000000
vt 0.347685 0.210787 -0.000000
vt 0.664556 0.009323 0.237251
vt 0.664500 0.009323 0.222498
vt 0.659815 0.009323 0.167046
vt 0.651123 0.009323 0.092335
vt 0.639472 0.009323 0.007376
vt 0.626268 0.009323 -0.077582
vt 0.613103 0.009323 -0.152293
vt 0.601565 0.009323 -0.207746
vt 0.593046 0.009323 -0.237251
vt 0.588573 0.009323 -0.237251
vt 0.588630 0.009323 -0.222498
vt 0.001472 0.002269 0.000000
vt 0.001472 0.002269 0.000000
vt 0.001000 0.002269 0.000000
vt 0.001000 0.002269 0.000000
vt 0.001000 0.002269 0.000000
vt 0.001000 0.002269 0.000000
vt 0.001472 0.002269 0.000000
vt 0.001472 0.002269 0.000000
vt 0.001000 0.002269 0.000000
vt 0.001000 0.002269 0.000000
vt 0.001000 0.001000 0.000000
vt 0.001000 0.001000 0.000000
vt 0.001000 0.002269 0.000000
vt 0.001000 0.002269 0.000000
vt 0.001032 0.002269 0.000000
vt 0.001032 0.002269 0.000000
vt 0.001032 0.002269 0.000000
vt 0.001032 0.002269 0.000000
vt 0.001000 0.002269 0.000000
vt 0.001000 0.002269 0.000000
vt 0.001000 0.002269 0.000000
vt 0.001000 0.002269 0.000000
vt 0.001032 0.002269 0.000000
vt 0.001032 0.002269 0.000000
vt 0.001000 0.001000 0.000000
vt 0.001000 0.001000 0.000000
vt 0.001000 0.002269 0.000000
vt 0.001000 0.002269 0.000000
vt 0.001032 0.002269 0.000000
vt 0.001032 0.002269 0.000000
vt 0.001000 0.002269 0.000000
vt 0.001000 0.002269 0.000000
vt 0.001000 0.002269 0.000000
vt 0.001000 0.002269 0.000000
vt 0.001472 0.002269 0.000000
vt 0.001472 0.002269 0.000000
vt 0.001472 0.002269 0.000000
vt 0.001472 0.002269 0.000000
vt 0.001000 0.002269 0.000000
vt 0.001000 0.002269 0.000000
vt 0.001000 0.001000 0.000000
vt 0.001000 0.001000 0.000000
vt 0.001000 0.002269 0.000000
vt 0.001000 0.002269 0.000000
vt 0.001032 0.002269 0.000000
vt 0.001032 0.002269 0.000000
vt 0.001000 0.002269 0.000000
vt 0.001000 0.002269 0.000000
vt 0.001000 0.002269 0.000000
vt 0.001000 0.002269 0.000000
vt 0.001032 0.002269 0.000000
vt 0.001032 0.002269 0.000000
vt 0.001032 0.002269 0.000000
vt 0.001032 0.002269 0.000000
vt 0.001000 0.002269 0.000000
vt 0.001000 0.002269 0.000000
vt 0.001000 0.002269 0.000000
vt 0.001000 0.002269 0.000000
vt 0.001000 0.001000 0.000000
vt 0.001000 0.001000 0.000000
vt 0.001000 0.002269 0.000000
vt 0.001000 0.002269 0.000000
vt 0.001032 0.002269 0.000000
vt 0.001032 0.002269 0.000000
# 1388 texture coords

o Box001
g Box001
usemtl wire_255255255
f 1/1 4/4 3/3 2/2 
f 5/5 8/8 7/7 6/6 
f 9/9 12/12 11/11 10/10 
f 1/1 14/14 13/13 4/4 
f 6/6 11/11 12/12 5/5 
f 8/8 13/16 14/15 7/7 
f 2/17 684/25 29/24 10/23 11/22 6/21 7/20 14/19 1/18 
f 29/26 15/27 9/9 10/10 
f 15/28 685/36 3/35 4/34 13/33 8/32 5/31 12/30 9/29 
f 17/37 687/40 16/39 18/38 
f 19/41 22/44 21/43 20/42 
f 23/45 26/48 25/47 24/46 
f 17/37 18/38 28/50 27/49 
f 22/44 19/41 24/46 25/47 
f 20/42 21/43 27/52 28/51 
f 687/53 17/61 27/60 21/59 22/58 25/57 26/56 29/55 684/54 
f 29/62 26/48 23/45 15/63 
f 15/64 23/72 24/71 19/70 20/69 28/68 18/67 16/66 685/65 
f 30/73 33/76 32/75 31/74 
f 34/77 37/80 36/79 35/78 
f 38/81 41/84 40/83 39/82 
f 30/73 43/86 42/85 33/76 
f 35/78 40/83 41/84 34/77 
f 37/80 42/88 43/87 36/79 
f 31/89 377/97 59/96 39/95 40/94 35/93 36/92 43/91 30/90 
f 59/98 44/99 38/81 39/82 
f 44/100 46/108 32/107 33/106 42/105 37/104 34/103 41/102 38/101 
f 47/109 45/112 381/111 48/110 
f 49/113 52/116 51/115 50/114 
f 53/117 56/120 55/119 54/118 
f 47/109 48/110 58/122 57/121 
f 52/116 49/113 54/118 55/119 
f 50/114 51/115 57/124 58/123 
f 45/125 47/133 57/132 51/131 52/130 55/129 56/128 59/127 377/126 
f 59/134 56/120 53/117 44/135 
f 44/136 53/144 54/143 49/142 50/141 58/140 48/139 381/138 46/137 
f 62/147 686/598 688/597 60/145 
f 61/146 62/147 60/145 
f 63/148 64/149 320/601 319/600 
f 65/150 64/149 63/148 
f 66/151 69/154 68/153 67/152 
f 67/152 68/153 70/155 
f 70/155 68/153 69/154 71/156 
f 71/156 69/154 66/151 
f 72/157 73/158 82/167 81/166 
f 73/158 74/159 83/168 82/167 
f 74/159 75/160 84/169 83/168 
f 75/160 76/161 85/170 84/169 
f 76/161 77/162 86/171 85/170 
f 77/162 78/163 87/172 86/171 
f 78/163 79/164 88/173 87/172 
f 79/164 80/165 89/174 88/173 
f 80/165 323/606 425/609 89/174 
f 90/193 91/194 100/203 99/202 
f 91/194 92/195 101/204 100/203 
f 92/195 93/196 102/205 101/204 
f 93/196 94/197 103/206 102/205 
f 94/197 95/198 104/207 103/206 
f 95/198 96/199 105/208 104/207 
f 96/199 97/200 106/209 105/208 
f 97/200 98/201 107/210 106/209 
f 98/201 444/614 445/617 107/210 
f 108/229 109/230 113/235 112/234 
f 109/230 110/231 114/236 113/235 
f 110/231 111/232 115/237 114/236 
f 111/232 108/233 112/238 115/237 
f 112/234 113/235 117/240 116/239 
f 113/235 114/236 118/241 117/240 
f 114/236 115/237 119/242 118/241 
f 115/237 112/238 116/243 119/242 
f 116/239 117/240 121/245 120/244 
f 117/240 118/241 122/246 121/245 
f 118/241 119/242 123/247 122/246 
f 119/242 116/243 120/248 123/247 
f 120/244 121/245 125/250 124/249 
f 121/245 122/246 126/251 125/250 
f 122/246 123/247 127/252 126/251 
f 123/247 120/248 124/253 127/252 
f 124/249 125/250 129/255 128/254 
f 125/250 126/251 130/256 129/255 
f 126/251 127/252 131/257 130/256 
f 127/252 124/253 128/258 131/257 
f 128/254 129/255 133/260 132/259 
f 129/255 130/256 134/261 133/260 
f 130/256 131/257 135/262 134/261 
f 131/257 128/258 132/263 135/262 
f 132/259 133/260 137/265 136/264 
f 133/260 134/261 138/266 137/265 
f 134/261 135/262 139/267 138/266 
f 135/262 132/263 136/268 139/267 
f 136/264 137/265 141/270 140/269 
f 137/265 138/266 142/271 141/270 
f 138/266 139/267 143/272 142/271 
f 139/267 136/268 140/273 143/272 
f 140/269 141/270 145/275 144/274 
f 141/270 142/271 146/276 145/275 
f 142/271 143/272 147/277 146/276 
f 143/272 140/273 144/278 147/277 
f 144/274 145/275 149/280 148/279 
f 145/275 146/276 150/281 149/280 
f 146/276 147/277 151/282 150/281 
f 147/277 144/278 148/283 151/282 
f 148/279 149/280 153/285 152/284 
f 149/280 150/281 154/286 153/285 
f 150/281 151/282 155/287 154/286 
f 151/282 148/283 152/288 155/287 
f 152/284 153/285 157/290 156/289 
f 153/285 154/286 158/291 157/290 
f 154/286 155/287 159/292 158/291 
f 155/287 152/288 156/293 159/292 
f 156/289 157/290 161/295 160/294 
f 157/290 158/291 162/296 161/295 
f 158/291 159/292 163/297 162/296 
f 159/292 156/293 160/298 163/297 
f 160/294 161/295 165/300 164/299 
f 161/295 162/296 166/301 165/300 
f 162/296 163/297 167/302 166/301 
f 163/297 160/298 164/303 167/302 
f 164/299 165/300 169/305 168/304 
f 165/300 166/301 170/306 169/305 
f 166/301 167/302 171/307 170/306 
f 167/302 164/303 168/308 171/307 
f 168/304 169/305 173/310 172/309 
f 169/305 170/306 174/311 173/310 
f 170/306 171/307 175/312 174/311 
f 171/307 168/308 172/313 175/312 
f 172/309 173/310 177/315 176/314 
f 173/310 174/311 178/316 177/315 
f 174/311 175/312 179/317 178/316 
f 175/312 172/313 176/318 179/317 
f 176/314 177/315 109/320 108/319 
f 177/315 178/316 110/321 109/320 
f 178/316 179/317 111/322 110/321 
f 179/317 176/318 108/323 111/322 
f 186/344 187/347 192/356 193/359 188/348 189/351 180/332 181/335 
f 184/340 185/343 182/336 183/339 190/352 191/355 194/360 195/363 
f 186/345 181/334 182/337 185/342 
f 180/333 189/350 190/353 183/338 
f 188/349 193/358 194/361 191/354 
f 192/357 187/346 184/341 195/362 
f 182/337 181/334 180/325 183/327 
f 186/345 185/342 184/326 187/324 
f 190/353 189/350 188/328 191/329 
f 194/361 193/358 192/330 195/331 
f 201/371 202/372 199/368 196/364 
f 198/367 197/366 196/365 199/369 
f 202/372 201/371 200/370 203/373 
f 207/378 210/382 209/381 204/374 
f 204/375 205/376 206/377 207/379 
f 208/380 209/381 210/382 211/383 
f 199/1328 202/1325 210/1326 207/1327 
f 201/1332 196/1329 204/1330 209/1331 
f 197/1336 198/1333 206/1334 205/1335 
f 196/1340 197/1337 205/1338 204/1339 
f 198/1344 199/1341 207/1342 206/1343 
f 200/1348 201/1345 209/1346 208/1347 
f 203/1352 200/1349 208/1350 211/1351 
f 202/1356 203/1353 211/1354 210/1355 
f 212/389 217/398 218/401 215/394 
f 216/397 325/620 555/626 219/402 
f 214/393 213/390 212/384 215/385 
f 218/401 217/398 216/386 219/387 
f 222/412 223/415 224/416 225/419 563/627 564/629 
f 220/408 221/411 567/631 568/633 226/420 227/423 
f 222/413 564/630 567/632 221/410 
f 224/417 223/414 220/409 227/422 
f 222/413 221/410 220/405 223/404 
f 226/421 225/418 224/406 227/407 
f 228/424 231/427 232/428 574/635 575/641 230/426 229/425 
f 234/442 330/643 579/649 239/445 
f 228/429 328/638 581/651 233/430 
f 228/431 234/432 235/433 231/434 
f 231/435 235/436 236/437 232/438 
f 232/438 236/437 331/646 574/636 
f 228/429 233/430 237/439 234/440 
f 234/440 237/439 586/653 330/644 
f 233/430 238/441 241/447 237/439 
f 237/439 241/447 332/654 586/653 
f 229/448 239/449 579/650 329/640 
f 229/450 230/451 240/452 239/453 
f 245/456 262/477 261/476 260/475 259/474 258/473 257/472 597/471 242/470 256/469 255/468 254/467 253/466 252/465 251/464 250/463 249/462 248/461 607/460 608/459 247/458 246/457 
f 263/478 265/480 264/479 
f 253/481 267/483 266/482 252/465 
f 253/481 254/485 268/484 267/483 
f 254/485 255/487 269/486 268/484 
f 255/487 256/489 270/488 269/486 
f 256/489 242/491 619/490 270/488 
f 248/461 249/462 272/493 271/492 
f 249/462 250/463 273/494 272/493 
f 250/463 251/464 274/495 273/494 
f 251/464 252/465 266/482 274/495 
f 266/482 267/483 276/497 275/496 
f 267/483 268/499 277/498 276/497 
f 268/499 269/501 278/500 277/498 
f 269/501 270/503 279/502 278/500 
f 270/503 619/505 280/504 279/502 
f 271/492 272/493 282/507 281/506 
f 272/493 273/494 283/508 282/507 
f 273/494 274/495 284/509 283/508 
f 266/482 275/496 284/509 274/495 
f 275/496 276/497 265/480 263/478 
f 276/497 277/498 285/510 265/480 
f 277/498 278/500 286/511 285/510 
f 278/500 279/502 287/512 286/511 
f 279/502 280/504 636/513 287/512 
f 281/506 282/507 289/515 288/514 
f 282/507 283/508 290/516 289/515 
f 283/508 284/509 291/517 290/516 
f 275/496 263/478 291/517 284/509 
f 261/518 262/521 293/520 292/519 
f 262/521 245/523 294/522 293/520 
f 260/524 261/518 292/519 264/525 
f 245/523 246/527 295/526 294/522 
f 259/528 260/524 264/525 296/529 
f 246/527 247/531 297/530 295/526 
f 258/532 259/528 296/529 298/533 
f 247/534 608/537 648/536 297/535 
f 257/538 258/532 298/533 299/539 
f 288/514 297/542 650/541 243/540 
f 288/514 295/543 297/542 
f 289/515 295/543 288/514 
f 289/515 294/544 295/543 
f 290/516 294/544 289/515 
f 290/516 293/545 294/544 
f 291/517 293/545 290/516 
f 291/517 292/546 293/545 
f 263/478 292/546 291/517 
f 263/478 264/479 292/546 
f 299/547 287/512 651/549 652/548 
f 299/547 286/511 287/512 
f 298/550 286/511 299/547 
f 298/550 285/510 286/511 
f 296/551 285/510 298/550 
f 296/551 265/480 285/510 
f 264/479 265/480 296/551 
f 653/552 607/555 248/554 271/553 
f 244/556 653/557 271/492 281/506 
f 243/540 244/556 281/506 288/514 
f 652/558 597/559 257/538 299/539 
f 648/560 650/541 297/542 
f 636/513 651/549 287/512 
f 300/561 301/562 310/571 309/570 
f 301/562 302/563 311/572 310/571 
f 302/563 303/564 312/573 311/572 
f 303/564 304/565 313/574 312/573 
f 304/565 305/566 314/575 313/574 
f 305/566 306/567 315/576 314/575 
f 306/567 307/568 316/577 315/576 
f 307/568 308/569 317/578 316/577 
f 308/569 334/658 672/661 317/578 
f 318/599 61/146 60/145 688/597 
f 320/601 64/149 65/150 321/602 
f 323/605 80/183 79/182 78/181 77/180 76/179 75/178 74/177 73/176 72/175 322/603 
f 322/604 72/157 81/166 674/607 
f 674/608 81/184 82/185 83/186 84/187 85/188 86/189 87/190 88/191 89/192 425/610 
f 444/613 98/219 97/218 96/217 95/216 94/215 93/214 92/213 91/212 90/211 675/611 
f 675/612 90/193 99/202 324/615 
f 324/616 99/220 100/221 101/222 102/223 103/224 104/225 105/226 106/227 107/228 445/618 
f 325/619 216/396 217/399 212/388 213/391 326/621 
f 327/623 214/392 215/395 218/400 219/403 555/625 
f 326/622 213/390 214/393 327/624 
f 563/628 225/418 226/421 568/634 
f 328/637 228/424 229/425 329/639 
f 331/645 236/443 235/444 234/442 239/445 240/446 676/647 
f 677/652 238/441 233/430 581/651 
f 332/654 241/447 238/441 677/652 
f 676/648 240/454 230/455 575/642 
f 334/657 308/587 307/586 306/585 305/584 304/583 303/582 302/581 301/580 300/579 333/655 
f 333/656 300/561 309/570 678/659 
f 678/660 309/588 310/589 311/590 312/591 313/592 314/593 315/594 316/595 317/596 672/662 
f 335/663 682/666 337/665 336/664 
f 338/667 341/670 340/669 339/668 
f 342/671 345/674 344/673 343/672 
f 335/663 336/664 347/676 346/675 
f 341/670 338/667 343/672 344/673 
f 339/668 340/669 346/678 347/677 
f 682/679 335/687 346/686 340/685 341/684 344/683 345/682 349/681 348/680 
f 349/688 345/674 342/671 350/689 
f 350/690 342/698 343/697 338/696 339/695 347/694 336/693 337/692 351/691 
f 352/699 354/702 681/701 353/700 
f 355/703 358/706 357/705 356/704 
f 359/707 362/710 361/709 360/708 
f 352/699 364/712 363/711 354/702 
f 356/704 361/709 362/710 355/703 
f 358/706 363/714 364/713 357/705 
f 353/715 348/723 349/722 360/721 361/720 356/719 357/718 364/717 352/716 
f 349/724 350/725 359/707 360/708 
f 350/726 351/734 681/733 354/732 363/731 358/730 355/729 362/728 359/727 
f 365/735 31/738 32/737 366/736 
f 367/739 370/742 369/741 368/740 
f 371/743 374/746 373/745 372/744 
f 365/735 366/736 376/748 375/747 
f 370/742 367/739 372/744 373/745 
f 368/740 369/741 375/750 376/749 
f 31/751 365/759 375/758 369/757 370/756 373/755 374/754 378/753 377/752 
f 378/760 374/746 371/743 379/761 
f 379/762 371/770 372/769 367/768 368/767 376/766 366/765 32/764 46/763 
f 380/771 382/774 381/773 45/772 
f 383/775 386/778 385/777 384/776 
f 387/779 390/782 389/781 388/780 
f 380/771 392/784 391/783 382/774 
f 384/776 389/781 390/782 383/775 
f 386/778 391/786 392/785 385/777 
f 45/787 377/795 378/794 388/793 389/792 384/791 385/790 392/789 380/788 
f 378/796 379/797 387/779 388/780 
f 379/798 46/806 381/805 382/804 391/803 386/802 383/801 390/800 387/799 
f 393/807 396/810 395/809 394/808 
f 397/811 396/810 393/807 
f 398/812 679/815 683/814 399/813 
f 400/816 398/812 399/813 
f 401/817 404/820 403/819 402/818 
f 404/820 405/821 403/819 
f 405/821 406/822 402/818 403/819 
f 406/822 401/817 402/818 
f 407/823 410/826 409/825 408/824 
f 408/824 409/825 412/828 411/827 
f 411/827 412/828 414/830 413/829 
f 413/829 414/830 416/832 415/831 
f 415/831 416/832 418/834 417/833 
f 417/833 418/834 420/836 419/835 
f 419/835 420/836 422/838 421/837 
f 421/837 422/838 424/840 423/839 
f 423/839 424/840 425/842 323/841 
f 426/843 429/846 428/845 427/844 
f 427/844 428/845 431/848 430/847 
f 430/847 431/848 433/850 432/849 
f 432/849 433/850 435/852 434/851 
f 434/851 435/852 437/854 436/853 
f 436/853 437/854 439/856 438/855 
f 438/855 439/856 441/858 440/857 
f 440/857 441/858 443/860 442/859 
f 442/859 443/860 445/862 444/861 
f 446/863 449/866 448/865 447/864 
f 447/864 448/865 451/868 450/867 
f 450/867 451/868 453/870 452/869 
f 452/869 453/870 449/872 446/871 
f 449/866 455/874 454/873 448/865 
f 448/865 454/873 456/875 451/868 
f 451/868 456/875 457/876 453/870 
f 453/870 457/876 455/877 449/872 
f 455/874 459/879 458/878 454/873 
f 454/873 458/878 460/880 456/875 
f 456/875 460/880 461/881 457/876 
f 457/876 461/881 459/882 455/877 
f 459/879 463/884 462/883 458/878 
f 458/878 462/883 464/885 460/880 
f 460/880 464/885 465/886 461/881 
f 461/881 465/886 463/887 459/882 
f 463/884 467/889 466/888 462/883 
f 462/883 466/888 468/890 464/885 
f 464/885 468/890 469/891 465/886 
f 465/886 469/891 467/892 463/887 
f 467/889 471/894 470/893 466/888 
f 466/888 470/893 472/895 468/890 
f 468/890 472/895 473/896 469/891 
f 469/891 473/896 471/897 467/892 
f 471/894 475/899 474/898 470/893 
f 470/893 474/898 476/900 472/895 
f 472/895 476/900 477/901 473/896 
f 473/896 477/901 475/902 471/897 
f 475/899 479/904 478/903 474/898 
f 474/898 478/903 480/905 476/900 
f 476/900 480/905 481/906 477/901 
f 477/901 481/906 479/907 475/902 
f 479/904 483/909 482/908 478/903 
f 478/903 482/908 484/910 480/905 
f 480/905 484/910 485/911 481/906 
f 481/906 485/911 483/912 479/907 
f 483/909 487/914 486/913 482/908 
f 482/908 486/913 488/915 484/910 
f 484/910 488/915 489/916 485/911 
f 485/911 489/916 487/917 483/912 
f 487/914 491/919 490/918 486/913 
f 486/913 490/918 492/920 488/915 
f 488/915 492/920 493/921 489/916 
f 489/916 493/921 491/922 487/917 
f 491/919 495/924 494/923 490/918 
f 490/918 494/923 496/925 492/920 
f 492/920 496/925 497/926 493/921 
f 493/921 497/926 495/927 491/922 
f 495/924 499/929 498/928 494/923 
f 494/923 498/928 500/930 496/925 
f 496/925 500/930 501/931 497/926 
f 497/926 501/931 499/932 495/927 
f 499/929 503/934 502/933 498/928 
f 498/928 502/933 504/935 500/930 
f 500/930 504/935 505/936 501/931 
f 501/931 505/936 503/937 499/932 
f 503/934 507/939 506/938 502/933 
f 502/933 506/938 508/940 504/935 
f 504/935 508/940 509/941 505/936 
f 505/936 509/941 507/942 503/937 
f 507/939 511/944 510/943 506/938 
f 506/938 510/943 512/945 508/940 
f 508/940 512/945 513/946 509/941 
f 509/941 513/946 511/947 507/942 
f 511/944 515/949 514/948 510/943 
f 510/943 514/948 516/950 512/945 
f 512/945 516/950 517/951 513/946 
f 513/946 517/951 515/952 511/947 
f 515/949 446/954 447/953 514/948 
f 514/948 447/953 450/955 516/950 
f 516/950 450/955 452/956 517/951 
f 517/951 452/956 446/957 515/952 
f 518/958 525/965 524/964 523/963 522/962 521/961 520/960 519/959 
f 526/966 533/973 532/972 531/971 530/970 529/969 528/968 527/967 
f 518/974 527/977 528/976 525/975 
f 524/978 529/981 530/980 523/979 
f 522/982 531/985 532/984 521/983 
f 520/986 533/989 526/988 519/987 
f 528/976 529/991 524/990 525/975 
f 518/974 519/993 526/992 527/977 
f 530/980 531/995 522/994 523/979 
f 532/984 533/997 520/996 521/983 
f 534/998 537/1001 536/1000 535/999 
f 538/1002 536/1005 537/1004 539/1003 
f 535/999 541/1007 540/1006 534/998 
f 542/1008 545/1011 544/1010 543/1009 
f 545/1012 542/1015 547/1014 546/1013 
f 548/1016 549/1017 543/1009 544/1010 
f 536/1357 542/1358 543/1359 535/1360 
f 534/1361 544/1362 545/1363 537/1364 
f 539/1365 546/1366 547/1367 538/1368 
f 537/1369 545/1370 546/1371 539/1372 
f 538/1373 547/1374 542/1375 536/1376 
f 540/1377 548/1378 544/1379 534/1380 
f 541/1381 549/1382 548/1383 540/1384 
f 535/1385 543/1386 549/1387 541/1388 
f 550/1018 553/1021 552/1020 551/1019 
f 554/1022 556/1025 555/1024 325/1023 
f 557/1026 553/1029 550/1028 558/1027 
f 552/1020 556/1031 554/1030 551/1019 
f 559/1032 564/1037 563/1036 562/1035 561/1034 560/1033 
f 565/1038 570/1043 569/1042 568/1041 567/1040 566/1039 
f 559/1044 566/1047 567/1046 564/1045 
f 561/1048 570/1051 565/1050 560/1049 
f 559/1044 560/1053 565/1052 566/1047 
f 569/1054 570/1057 561/1056 562/1055 
f 571/1058 577/1064 576/1063 575/1062 574/1061 573/1060 572/1059 
f 578/1065 580/1068 579/1067 330/1066 
f 571/1069 582/1072 581/1071 328/1070 
f 571/1073 572/1076 583/1075 578/1074 
f 572/1077 573/1080 584/1079 583/1078 
f 573/1080 574/1082 331/1081 584/1079 
f 571/1069 578/1084 585/1083 582/1072 
f 578/1084 330/1086 586/1085 585/1083 
f 582/1072 585/1083 588/1088 587/1087 
f 585/1083 586/1085 332/1089 588/1088 
f 577/1090 329/1093 579/1092 580/1091 
f 577/1094 580/1097 589/1096 576/1095 
f 590/1098 610/1119 609/1118 608/1117 607/1116 606/1115 605/1114 604/1113 603/1112 602/1111 601/1110 600/1109 599/1108 598/1107 242/1106 597/1105 596/1104 595/1103 594/1102 593/1101 592/1100 591/1099 
f 611/1120 613/1122 612/1121 
f 601/1123 602/1111 615/1125 614/1124 
f 601/1123 614/1124 616/1127 600/1126 
f 600/1126 616/1127 617/1129 599/1128 
f 599/1128 617/1129 618/1131 598/1130 
f 598/1130 618/1131 619/1133 242/1132 
f 606/1115 621/1135 620/1134 605/1114 
f 605/1114 620/1134 622/1136 604/1113 
f 604/1113 622/1136 623/1137 603/1112 
f 603/1112 623/1137 615/1125 602/1111 
f 615/1125 625/1139 624/1138 614/1124 
f 614/1124 624/1138 626/1141 616/1140 
f 616/1140 626/1141 627/1143 617/1142 
f 617/1142 627/1143 628/1145 618/1144 
f 618/1144 628/1145 280/1147 619/1146 
f 621/1135 630/1149 629/1148 620/1134 
f 620/1134 629/1148 631/1150 622/1136 
f 622/1136 631/1150 632/1151 623/1137 
f 615/1125 623/1137 632/1151 625/1139 
f 625/1139 611/1120 612/1121 624/1138 
f 624/1138 612/1121 633/1152 626/1141 
f 626/1141 633/1152 634/1153 627/1143 
f 627/1143 634/1153 635/1154 628/1145 
f 628/1145 635/1154 636/1155 280/1147 
f 630/1149 638/1157 637/1156 629/1148 
f 629/1148 637/1156 639/1158 631/1150 
f 631/1150 639/1158 640/1159 632/1151 
f 625/1139 632/1151 640/1159 611/1120 
f 592/1160 642/1163 641/1162 591/1161 
f 591/1161 641/1162 643/1165 590/1164 
f 593/1166 613/1167 642/1163 592/1160 
f 590/1164 643/1165 644/1169 610/1168 
f 594/1170 645/1171 613/1167 593/1166 
f 610/1168 644/1169 646/1173 609/1172 
f 595/1174 647/1175 645/1171 594/1170 
f 609/1176 646/1179 648/1178 608/1177 
f 596/1180 649/1181 647/1175 595/1174 
f 638/1157 243/1184 650/1183 646/1182 
f 638/1157 646/1182 644/1185 
f 637/1156 638/1157 644/1185 
f 637/1156 644/1185 643/1186 
f 639/1158 637/1156 643/1186 
f 639/1158 643/1186 641/1187 
f 640/1159 639/1158 641/1187 
f 640/1159 641/1187 642/1188 
f 611/1120 640/1159 642/1188 
f 611/1120 642/1188 613/1122 
f 649/1189 652/1191 651/1190 635/1154 
f 649/1189 635/1154 634/1153 
f 647/1192 649/1189 634/1153 
f 647/1192 634/1153 633/1152 
f 645/1193 647/1192 633/1152 
f 645/1193 633/1152 612/1121 
f 613/1122 645/1193 612/1121 
f 653/1194 621/1197 606/1196 607/1195 
f 244/1198 630/1149 621/1135 653/1199 
f 243/1184 638/1157 630/1149 244/1198 
f 652/1200 649/1181 596/1180 597/1201 
f 648/1202 646/1182 650/1183 
f 636/1155 635/1154 651/1190 
f 654/1203 657/1206 656/1205 655/1204 
f 655/1204 656/1205 659/1208 658/1207 
f 658/1207 659/1208 661/1210 660/1209 
f 660/1209 661/1210 663/1212 662/1211 
f 662/1211 663/1212 665/1214 664/1213 
f 664/1213 665/1214 667/1216 666/1215 
f 666/1215 667/1216 669/1218 668/1217 
f 668/1217 669/1218 671/1220 670/1219 
f 670/1219 671/1220 672/1222 334/1221 
f 673/1223 395/809 396/810 397/811 
f 683/814 680/1224 400/816 399/813 
f 323/1225 322/1235 407/1234 408/1233 411/1232 413/1231 415/1230 417/1229 419/1228 421/1227 423/1226 
f 322/1236 674/1237 410/826 407/823 
f 674/1238 425/1248 424/1247 422/1246 420/1245 418/1244 416/1243 414/1242 412/1241 409/1240 410/1239 
f 444/1249 675/1259 426/1258 427/1257 430/1256 432/1255 434/1254 436/1253 438/1252 440/1251 442/1250 
f 675/1260 324/1261 429/846 426/843 
f 324/1262 445/1272 443/1271 441/1270 439/1269 437/1268 435/1267 433/1266 431/1265 428/1264 429/1263 
f 325/1273 326/1278 558/1277 550/1276 551/1275 554/1274 
f 327/1279 555/1284 556/1283 552/1282 553/1281 557/1280 
f 326/1285 327/1286 557/1026 558/1027 
f 563/1287 568/1288 569/1054 562/1055 
f 328/1289 329/1290 577/1064 571/1058 
f 331/1291 676/1295 589/1294 580/1068 578/1065 583/1293 584/1292 
f 677/1296 581/1071 582/1072 587/1087 
f 332/1089 677/1296 587/1087 588/1088 
f 676/1297 575/1300 576/1299 589/1298 
f 334/1301 333/1311 654/1310 655/1309 658/1308 660/1307 662/1306 664/1305 666/1304 668/1303 670/1302 
f 333/1312 678/1313 657/1206 654/1203 
f 678/1314 672/1324 671/1323 669/1322 667/1321 665/1320 663/1319 661/1318 659/1317 656/1316 657/1315 
# 496 polygons - 44 triangles

